<?xml version="1.0" encoding="UTF-8"?>
<svg xmlns="http://www.w3.org/2000/svg" xmlns:xlink="http://www.w3.org/1999/xlink" width="46px" height="100px" viewBox="0 0 46 100" version="1.1">
<g id="surface1">
<path style=" stroke:none;fill-rule:nonzero;fill:rgb(6.27451%,9.411765%,12.54902%);fill-opacity:1;" d="M 11.261719 43.417969 C 10.972656 43.417969 10.683594 43.363281 10.414062 43.257812 C 5.851562 41.476562 -0.183594 38.554688 0.0742188 33.9375 C 0.367188 28.84375 8.269531 26.335938 10.664062 25.699219 C 11.902344 25.371094 13.171875 26.101562 13.503906 27.335938 C 13.835938 28.570312 13.101562 29.839844 11.867188 30.171875 C 8.300781 31.128906 4.765625 33.121094 4.707031 34.195312 C 4.707031 34.195312 4.808594 36.089844 12.113281 38.949219 C 13.148438 39.355469 13.75 40.441406 13.542969 41.535156 C 13.332031 42.625 12.375 43.417969 11.261719 43.417969 Z M 11.261719 43.417969 "/>
<path style=" stroke:none;fill-rule:nonzero;fill:rgb(6.27451%,9.411765%,12.54902%);fill-opacity:1;" d="M 16.117188 76.511719 C 14.835938 76.511719 13.796875 75.476562 13.796875 74.199219 L 13.796875 57.339844 C 13.796875 56.0625 14.835938 55.023438 16.117188 55.023438 C 17.394531 55.023438 18.433594 56.0625 18.433594 57.339844 L 18.433594 74.199219 C 18.433594 75.476562 17.394531 76.511719 16.117188 76.511719 Z M 16.117188 76.511719 "/>
<path style=" stroke:none;fill-rule:nonzero;fill:rgb(6.27451%,9.411765%,12.54902%);fill-opacity:1;" d="M 33.589844 100 C 32.308594 100 31.269531 98.964844 31.269531 97.6875 L 31.269531 57.339844 C 31.269531 56.0625 32.308594 55.023438 33.589844 55.023438 C 34.867188 55.023438 35.90625 56.0625 35.90625 57.339844 L 35.90625 97.6875 C 35.90625 98.964844 34.867188 100 33.589844 100 Z M 33.589844 100 "/>
<path style=" stroke:none;fill-rule:nonzero;fill:rgb(9.803922%,43.921569%,69.019608%);fill-opacity:1;" d="M 24.703125 11.386719 C 33.296875 11.386719 40.261719 18.339844 40.261719 26.914062 L 40.261719 51.160156 C 40.261719 53.519531 38.34375 55.429688 35.980469 55.429688 L 13.421875 55.429688 C 11.058594 55.429688 9.144531 53.519531 9.144531 51.160156 L 9.144531 26.914062 C 9.144531 18.339844 16.109375 11.386719 24.703125 11.386719 Z M 24.703125 11.386719 "/>
<path style=" stroke:none;fill-rule:nonzero;fill:rgb(6.27451%,9.411765%,12.54902%);fill-opacity:1;" d="M 35.980469 56.140625 L 13.421875 56.140625 C 10.667969 56.140625 8.429688 53.910156 8.429688 51.160156 L 8.429688 26.914062 C 8.429688 17.945312 15.714844 10.675781 24.703125 10.675781 C 33.6875 10.675781 40.972656 17.945312 40.972656 26.914062 L 40.972656 51.160156 C 40.972656 53.910156 38.738281 56.140625 35.980469 56.140625 Z M 24.703125 12.101562 C 16.507812 12.109375 9.867188 18.734375 9.859375 26.914062 L 9.859375 51.160156 C 9.859375 53.125 11.453125 54.71875 13.421875 54.71875 L 35.980469 54.71875 C 37.949219 54.71875 39.546875 53.125 39.546875 51.160156 L 39.546875 26.914062 C 39.539062 18.738281 32.898438 12.109375 24.703125 12.101562 Z M 24.703125 12.101562 "/>
<path style=" stroke:none;fill-rule:nonzero;fill:rgb(90.980392%,25.490196%,18.823529%);fill-opacity:1;" d="M 9.117188 48.546875 L 40.289062 48.546875 C 41.753906 48.546875 42.9375 49.730469 42.9375 51.191406 L 42.9375 54.542969 C 42.9375 56.003906 41.753906 57.1875 40.289062 57.1875 L 9.117188 57.1875 C 7.652344 57.1875 6.464844 56.003906 6.464844 54.542969 L 6.464844 51.191406 C 6.464844 49.730469 7.652344 48.546875 9.117188 48.546875 Z M 9.117188 48.546875 "/>
<path style=" stroke:none;fill-rule:nonzero;fill:rgb(6.27451%,9.411765%,12.54902%);fill-opacity:1;" d="M 40.285156 57.898438 L 9.117188 57.898438 C 7.261719 57.898438 5.753906 56.398438 5.753906 54.542969 L 5.753906 51.191406 C 5.753906 49.339844 7.261719 47.839844 9.117188 47.835938 L 40.285156 47.835938 C 42.140625 47.839844 43.644531 49.339844 43.648438 51.191406 L 43.648438 54.542969 C 43.644531 56.398438 42.140625 57.898438 40.285156 57.898438 Z M 9.117188 49.261719 C 8.046875 49.261719 7.183594 50.125 7.179688 51.191406 L 7.179688 54.542969 C 7.179688 55.613281 8.046875 56.476562 9.117188 56.476562 L 40.285156 56.476562 C 41.355469 56.476562 42.222656 55.613281 42.222656 54.542969 L 42.222656 51.191406 C 42.21875 50.125 41.355469 49.261719 40.285156 49.261719 Z M 9.117188 49.261719 "/>
<path style=" stroke:none;fill-rule:nonzero;fill:rgb(100%,100%,100%);fill-opacity:1;" d="M 35.566406 29.734375 L 35.570312 29.734375 C 36.304688 29.75 36.890625 30.359375 36.875 31.09375 L 36.734375 37.757812 C 36.722656 38.492188 36.113281 39.074219 35.375 39.058594 L 35.371094 39.058594 C 34.636719 39.042969 34.050781 38.4375 34.066406 37.703125 L 34.203125 31.039062 C 34.21875 30.300781 34.828125 29.71875 35.566406 29.734375 Z M 35.566406 29.734375 "/>
<path style=" stroke:none;fill-rule:nonzero;fill:rgb(100%,100%,100%);fill-opacity:1;" d="M 36.433594 41.472656 C 36.433594 42.082031 35.941406 42.578125 35.328125 42.578125 C 34.71875 42.578125 34.222656 42.082031 34.222656 41.472656 C 34.222656 40.863281 34.71875 40.371094 35.328125 40.371094 C 35.941406 40.371094 36.433594 40.863281 36.433594 41.472656 Z M 36.433594 41.472656 "/>
<path style=" stroke:none;fill-rule:nonzero;fill:rgb(6.27451%,9.411765%,12.54902%);fill-opacity:1;" d="M 36.9375 26.335938 C 35.957031 26.324219 35.089844 25.699219 34.769531 24.773438 C 34.449219 23.847656 34.746094 22.820312 35.511719 22.210938 C 35.835938 21.949219 42.664062 16.222656 41.070312 2.578125 C 40.921875 1.308594 41.835938 0.160156 43.105469 0.015625 C 44.378906 -0.132812 45.53125 0.777344 45.675781 2.046875 C 47.589844 18.433594 38.761719 25.535156 38.386719 25.84375 C 37.972656 26.167969 37.460938 26.339844 36.9375 26.335938 Z M 36.9375 26.335938 "/>
<path style=" stroke:none;fill-rule:nonzero;fill:rgb(90.980392%,25.490196%,18.823529%);fill-opacity:1;" d="M 17.679688 28.113281 C 17.679688 29.195312 16.804688 30.070312 15.71875 30.070312 C 14.636719 30.070312 13.757812 29.195312 13.757812 28.113281 C 13.757812 27.03125 14.636719 26.15625 15.71875 26.15625 C 16.804688 26.15625 17.679688 27.03125 17.679688 28.113281 Z M 17.679688 28.113281 "/>
<path style=" stroke:none;fill-rule:nonzero;fill:rgb(90.980392%,25.490196%,18.823529%);fill-opacity:1;" d="M 31.945312 28.113281 C 31.945312 29.195312 31.066406 30.070312 29.984375 30.070312 C 28.902344 30.070312 28.023438 29.195312 28.023438 28.113281 C 28.023438 27.03125 28.902344 26.15625 29.984375 26.15625 C 31.066406 26.15625 31.945312 27.03125 31.945312 28.113281 Z M 31.945312 28.113281 "/>
<path style=" stroke:none;fill-rule:nonzero;fill:rgb(6.27451%,9.411765%,12.54902%);fill-opacity:1;" d="M 23.386719 30.78125 L 21.960938 30.78125 C 21.566406 30.78125 21.246094 30.464844 21.246094 30.070312 C 21.246094 29.679688 21.566406 29.359375 21.960938 29.359375 L 23.386719 29.359375 C 23.78125 29.359375 24.101562 29.679688 24.101562 30.070312 C 24.101562 30.464844 23.78125 30.78125 23.386719 30.78125 Z M 23.386719 30.78125 "/>
<path style=" stroke:none;fill-rule:nonzero;fill:rgb(6.27451%,9.411765%,12.54902%);fill-opacity:1;" d="M 26.238281 21.175781 L 24.8125 21.175781 C 24.417969 21.175781 24.101562 20.855469 24.101562 20.460938 C 24.101562 20.070312 24.417969 19.75 24.8125 19.75 L 26.238281 19.75 C 26.632812 19.75 26.953125 20.070312 26.953125 20.460938 C 26.953125 20.855469 26.632812 21.175781 26.238281 21.175781 Z M 26.238281 21.175781 "/>
<path style=" stroke:none;fill-rule:nonzero;fill:rgb(6.27451%,9.411765%,12.54902%);fill-opacity:1;" d="M 19.464844 21.175781 L 18.039062 21.175781 C 17.644531 21.175781 17.324219 20.855469 17.324219 20.460938 C 17.324219 20.070312 17.644531 19.75 18.039062 19.75 L 19.464844 19.75 C 19.859375 19.75 20.175781 20.070312 20.175781 20.460938 C 20.175781 20.855469 19.859375 21.175781 19.464844 21.175781 Z M 19.464844 21.175781 "/>
<path style=" stroke:none;fill-rule:nonzero;fill:rgb(100%,100%,100%);fill-opacity:1;" d="M 29.09375 25.800781 C 29.09375 27.570312 27.65625 29.003906 25.882812 29.003906 C 24.109375 29.003906 22.671875 27.570312 22.671875 25.800781 C 22.671875 24.03125 24.109375 22.597656 25.882812 22.597656 C 27.65625 22.597656 29.09375 24.03125 29.09375 25.800781 Z M 29.09375 25.800781 "/>
<path style=" stroke:none;fill-rule:nonzero;fill:rgb(6.27451%,9.411765%,12.54902%);fill-opacity:1;" d="M 25.882812 29.539062 C 23.816406 29.539062 22.140625 27.863281 22.140625 25.800781 C 22.140625 23.738281 23.816406 22.0625 25.882812 22.0625 C 27.949219 22.0625 29.628906 23.738281 29.628906 25.800781 C 29.625 27.863281 27.949219 29.535156 25.882812 29.539062 Z M 25.882812 23.132812 C 24.40625 23.132812 23.207031 24.328125 23.207031 25.800781 C 23.207031 27.273438 24.40625 28.46875 25.882812 28.46875 C 27.359375 28.46875 28.558594 27.273438 28.558594 25.800781 C 28.554688 24.328125 27.359375 23.132812 25.882812 23.132812 Z M 25.882812 23.132812 "/>
<path style=" stroke:none;fill-rule:nonzero;fill:rgb(6.27451%,9.411765%,12.54902%);fill-opacity:1;" d="M 28.734375 25.800781 C 28.734375 24.226562 27.742188 22.953125 26.515625 22.953125 C 25.289062 22.953125 24.292969 24.226562 24.292969 25.800781 C 24.292969 27.375 25.289062 28.648438 26.515625 28.648438 C 27.742188 28.648438 28.734375 27.375 28.734375 25.800781 Z M 28.734375 25.800781 "/>
<path style=" stroke:none;fill-rule:nonzero;fill:rgb(100%,100%,100%);fill-opacity:1;" d="M 22.671875 25.800781 C 22.671875 27.570312 21.238281 29.003906 19.464844 29.003906 C 17.691406 29.003906 16.253906 27.570312 16.253906 25.800781 C 16.253906 24.03125 17.691406 22.597656 19.464844 22.597656 C 21.238281 22.597656 22.671875 24.03125 22.671875 25.800781 Z M 22.671875 25.800781 "/>
<path style=" stroke:none;fill-rule:nonzero;fill:rgb(6.27451%,9.411765%,12.54902%);fill-opacity:1;" d="M 19.464844 29.539062 C 17.398438 29.539062 15.71875 27.863281 15.71875 25.800781 C 15.71875 23.738281 17.398438 22.0625 19.464844 22.0625 C 21.53125 22.0625 23.207031 23.738281 23.207031 25.800781 C 23.207031 27.863281 21.53125 29.535156 19.464844 29.539062 Z M 19.464844 23.132812 C 17.988281 23.132812 16.789062 24.328125 16.789062 25.800781 C 16.789062 27.273438 17.988281 28.46875 19.464844 28.46875 C 20.941406 28.46875 22.140625 27.273438 22.140625 25.800781 C 22.136719 24.328125 20.941406 23.132812 19.464844 23.132812 Z M 19.464844 23.132812 "/>
<path style=" stroke:none;fill-rule:nonzero;fill:rgb(6.27451%,9.411765%,12.54902%);fill-opacity:1;" d="M 22.316406 25.800781 C 22.316406 24.226562 21.324219 22.953125 20.09375 22.953125 C 18.867188 22.953125 17.875 24.226562 17.875 25.800781 C 17.875 27.375 18.867188 28.648438 20.09375 28.648438 C 21.324219 28.648438 22.316406 27.375 22.316406 25.800781 Z M 22.316406 25.800781 "/>
<path style=" stroke:none;fill-rule:nonzero;fill:rgb(100%,100%,100%);fill-opacity:1;" d="M 21.246094 24.378906 C 21.246094 24.574219 21.085938 24.734375 20.890625 24.734375 C 20.695312 24.734375 20.535156 24.574219 20.535156 24.378906 C 20.535156 24.179688 20.695312 24.019531 20.890625 24.019531 C 21.085938 24.019531 21.246094 24.179688 21.246094 24.378906 Z M 21.246094 24.378906 "/>
<path style=" stroke:none;fill-rule:nonzero;fill:rgb(100%,100%,100%);fill-opacity:1;" d="M 28.023438 24.378906 C 28.023438 24.574219 27.863281 24.734375 27.664062 24.734375 C 27.46875 24.734375 27.308594 24.574219 27.308594 24.378906 C 27.308594 24.179688 27.46875 24.019531 27.664062 24.019531 C 27.863281 24.019531 28.023438 24.179688 28.023438 24.378906 Z M 28.023438 24.378906 "/>
</g>
</svg>
