<?xml version="1.0" standalone="no"?>
<!DOCTYPE svg PUBLIC "-//W3C//DTD SVG 20010904//EN"
 "http://www.w3.org/TR/2001/REC-SVG-20010904/DTD/svg10.dtd">
<svg version="1.0" xmlns="http://www.w3.org/2000/svg"
 width="130.000000pt" height="130.000000pt" viewBox="0 0 130.000000 130.000000"
 preserveAspectRatio="xMidYMid meet">

<g transform="translate(0.000000,100.000000) scale(0.100000,-0.100000)"
fill="#000000" stroke="none">
<path d="M490 899 c-37 -15 -58 -38 -66 -72 l-6 -30 -16 26 c-31 50 -95 62
-131 23 -38 -40 -37 -96 3 -210 l35 -100 -39 -43 c-74 -85 -57 -182 45 -249
16 -11 25 -26 25 -43 0 -104 256 -145 305 -50 8 15 15 33 15 38 0 6 11 27 25
47 14 20 25 48 25 62 0 15 13 39 30 57 41 42 48 89 20 134 -12 18 -29 35 -39
38 -11 3 -21 17 -24 32 -8 40 -43 79 -78 86 -25 6 -30 11 -25 28 2 12 8 54 12
93 6 69 5 72 -22 102 -34 36 -60 44 -94 31z m53 -139 c0 -47 -8 -114 -17 -150
-14 -61 -14 -66 3 -80 12 -11 15 -22 10 -35 -19 -48 -10 -75 41 -125 28 -28
57 -50 65 -50 36 0 6 -55 -40 -75 -38 -15 -45 -38 -17 -54 26 -15 2 -32 -52
-38 -52 -6 -131 18 -140 44 -5 12 -1 14 18 9 31 -8 54 17 36 39 -7 8 -18 15
-24 15 -6 0 -34 11 -63 24 -86 40 -106 109 -52 171 22 25 39 35 60 35 36 0 37
-19 4 -50 -15 -14 -25 -33 -23 -45 3 -17 10 -20 46 -20 37 0 47 -5 72 -35 28
-34 30 -34 47 -17 16 16 16 20 3 45 -9 14 -30 36 -47 48 -24 16 -29 24 -22 37
22 38 -19 97 -67 97 -47 0 -110 253 -67 267 25 9 51 -37 73 -128 31 -128 45
-161 67 -157 16 3 18 17 18 144 0 151 8 178 49 172 20 -3 21 -9 19 -88z m86
-183 c31 -38 14 -147 -23 -147 -19 0 -21 41 -5 72 10 18 8 25 -11 40 -18 15
-20 21 -10 33 15 19 34 19 49 2z m87 -122 c10 -26 -6 -65 -31 -77 -36 -16 -39
-7 -13 45 24 49 35 56 44 32z"/>
</g>
</svg>
