<?xml version="1.0" encoding="UTF-8"?>
<svg xmlns="http://www.w3.org/2000/svg" xmlns:xlink="http://www.w3.org/1999/xlink" width="69px" height="100px" viewBox="0 0 69 100" version="1.1">
<g id="surface1">
<path style=" stroke:none;fill-rule:nonzero;fill:rgb(1.568627%,0%,0%);fill-opacity:1;" d="M 42.824219 99.90625 C 41.074219 99.894531 39.660156 98.476562 39.660156 96.734375 L 39.660156 44.8125 C 39.660156 43.058594 41.085938 41.640625 42.84375 41.640625 C 44.601562 41.640625 46.027344 43.058594 46.027344 44.8125 L 46.027344 96.734375 C 46.027344 97.578125 45.6875 98.386719 45.085938 98.984375 C 44.484375 99.578125 43.671875 99.910156 42.824219 99.90625 Z M 42.824219 99.90625 "/>
<path style=" stroke:none;fill-rule:nonzero;fill:rgb(6.27451%,9.411765%,12.54902%);fill-opacity:1;" d="M 65.816406 58.984375 C 64.980469 58.984375 64.175781 58.65625 63.578125 58.066406 L 38.15625 33.023438 C 36.90625 31.792969 36.894531 29.785156 38.128906 28.535156 C 39.367188 27.289062 41.382812 27.277344 42.632812 28.507812 L 68.058594 53.554688 C 68.976562 54.460938 69.253906 55.824219 68.761719 57.015625 C 68.273438 58.203125 67.113281 58.980469 65.820312 58.984375 Z M 65.816406 58.984375 "/>
<path style=" stroke:none;fill-rule:nonzero;fill:rgb(6.27451%,9.411765%,12.54902%);fill-opacity:1;" d="M 3.183594 58.984375 C 1.894531 58.980469 0.730469 58.203125 0.242188 57.015625 C -0.246094 55.824219 0.03125 54.460938 0.945312 53.554688 L 26.367188 28.507812 C 27.617188 27.277344 29.632812 27.289062 30.871094 28.535156 C 32.109375 29.78125 32.097656 31.792969 30.847656 33.023438 L 5.421875 58.066406 C 4.824219 58.65625 4.019531 58.984375 3.183594 58.984375 Z M 3.183594 58.984375 "/>
<path style=" stroke:none;fill-rule:nonzero;fill:rgb(1.568627%,0%,0%);fill-opacity:1;" d="M 25.195312 99.90625 C 23.445312 99.894531 22.035156 98.476562 22.035156 96.734375 L 22.035156 44.8125 C 22.035156 43.058594 23.457031 41.640625 25.214844 41.640625 C 26.972656 41.640625 28.398438 43.058594 28.398438 44.8125 L 28.398438 96.734375 C 28.398438 97.578125 28.0625 98.386719 27.460938 98.984375 C 26.859375 99.578125 26.042969 99.910156 25.195312 99.90625 Z M 25.195312 99.90625 "/>
<path style=" stroke:none;fill-rule:nonzero;fill:rgb(9.803922%,43.921569%,69.019608%);fill-opacity:1;" d="M 19.046875 6.4375 L 50.382812 6.4375 C 53.628906 6.4375 56.257812 9.0625 56.257812 12.296875 L 56.257812 64.65625 C 56.257812 69.433594 52.375 73.304688 47.582031 73.304688 L 21.847656 73.304688 C 17.054688 73.304688 13.171875 69.433594 13.171875 64.65625 L 13.171875 12.296875 C 13.171875 9.0625 15.800781 6.4375 19.046875 6.4375 Z M 19.046875 6.4375 "/>
<path style=" stroke:none;fill-rule:nonzero;fill:rgb(6.27451%,9.411765%,12.54902%);fill-opacity:1;" d="M 47.582031 74.28125 L 21.847656 74.28125 C 16.515625 74.277344 12.199219 69.96875 12.191406 64.65625 L 12.191406 12.296875 C 12.191406 8.523438 15.261719 5.460938 19.046875 5.460938 L 50.382812 5.460938 C 54.167969 5.460938 57.238281 8.523438 57.238281 12.296875 L 57.238281 64.65625 C 57.230469 69.96875 52.914062 74.273438 47.582031 74.28125 Z M 19.046875 7.414062 C 16.34375 7.414062 14.152344 9.601562 14.152344 12.296875 L 14.152344 64.65625 C 14.15625 68.890625 17.597656 72.324219 21.847656 72.328125 L 47.582031 72.328125 C 51.832031 72.324219 55.273438 68.890625 55.28125 64.65625 L 55.28125 12.296875 C 55.28125 9.601562 53.089844 7.414062 50.382812 7.414062 Z M 19.046875 7.414062 "/>
<path style=" stroke:none;fill-rule:nonzero;fill:rgb(90.980392%,25.490196%,18.823529%);fill-opacity:1;" d="M 22.5 1.070312 L 26.855469 1.070312 C 27.679688 1.070312 28.351562 1.734375 28.351562 2.558594 L 28.351562 5.4375 C 28.351562 6.261719 27.679688 6.925781 26.855469 6.925781 L 22.5 6.925781 C 21.675781 6.925781 21.003906 6.261719 21.003906 5.4375 L 21.003906 2.558594 C 21.003906 1.734375 21.675781 1.070312 22.5 1.070312 Z M 22.5 1.070312 "/>
<path style=" stroke:none;fill-rule:nonzero;fill:rgb(6.27451%,9.411765%,12.54902%);fill-opacity:1;" d="M 26.855469 7.902344 L 22.492188 7.902344 C 21.839844 7.902344 21.214844 7.640625 20.753906 7.179688 C 20.292969 6.714844 20.039062 6.089844 20.046875 5.4375 L 20.046875 2.558594 C 20.046875 1.210938 21.140625 0.117188 22.492188 0.117188 L 26.855469 0.117188 C 28.210938 0.132812 29.300781 1.230469 29.304688 2.582031 L 29.304688 5.460938 C 29.289062 6.804688 28.203125 7.886719 26.855469 7.902344 Z M 22.492188 2.046875 C 22.230469 2.058594 22.019531 2.269531 22.003906 2.535156 L 22.003906 5.460938 C 22.007812 5.734375 22.222656 5.960938 22.492188 5.976562 L 26.855469 5.976562 C 27.128906 5.960938 27.34375 5.734375 27.347656 5.460938 L 27.347656 2.558594 C 27.332031 2.296875 27.121094 2.085938 26.855469 2.070312 Z M 22.492188 2.046875 "/>
<path style=" stroke:none;fill-rule:nonzero;fill:rgb(90.980392%,25.490196%,18.823529%);fill-opacity:1;" d="M 37.679688 1.070312 L 47.421875 1.070312 C 48.246094 1.070312 48.914062 1.734375 48.914062 2.558594 L 48.914062 5.4375 C 48.914062 6.261719 48.246094 6.925781 47.421875 6.925781 L 37.679688 6.925781 C 36.851562 6.925781 36.183594 6.261719 36.183594 5.4375 L 36.183594 2.558594 C 36.183594 1.734375 36.851562 1.070312 37.679688 1.070312 Z M 37.679688 1.070312 "/>
<path style=" stroke:none;fill-rule:nonzero;fill:rgb(6.27451%,9.411765%,12.54902%);fill-opacity:1;" d="M 47.421875 7.902344 L 37.671875 7.902344 C 37.019531 7.902344 36.394531 7.640625 35.933594 7.179688 C 35.472656 6.714844 35.21875 6.089844 35.226562 5.4375 L 35.226562 2.558594 C 35.226562 1.210938 36.320312 0.117188 37.671875 0.117188 L 47.421875 0.117188 C 48.785156 0.121094 49.890625 1.222656 49.894531 2.582031 L 49.894531 5.460938 C 49.878906 6.8125 48.777344 7.898438 47.421875 7.902344 Z M 37.671875 2.046875 C 37.410156 2.058594 37.199219 2.269531 37.183594 2.535156 L 37.183594 5.460938 C 37.183594 5.734375 37.398438 5.960938 37.671875 5.976562 L 47.421875 5.976562 C 47.703125 5.972656 47.933594 5.746094 47.9375 5.460938 L 47.9375 2.558594 C 47.921875 2.285156 47.695312 2.074219 47.421875 2.070312 Z M 37.671875 2.046875 "/>
<path style=" stroke:none;fill-rule:nonzero;fill:rgb(90.980392%,25.490196%,18.823529%);fill-opacity:1;" d="M 50.382812 6.4375 L 19.046875 6.4375 C 15.800781 6.4375 13.171875 9.0625 13.171875 12.296875 L 13.171875 14.734375 L 56.257812 14.734375 L 56.257812 12.296875 C 56.257812 9.0625 53.628906 6.4375 50.382812 6.4375 Z M 50.382812 6.4375 "/>
<path style=" stroke:none;fill-rule:nonzero;fill:rgb(6.27451%,9.411765%,12.54902%);fill-opacity:1;" d="M 57.238281 15.710938 L 12.191406 15.710938 L 12.191406 12.296875 C 12.191406 8.523438 15.261719 5.460938 19.046875 5.460938 L 50.382812 5.460938 C 54.167969 5.460938 57.238281 8.523438 57.238281 12.296875 Z M 14.152344 13.761719 L 55.28125 13.761719 L 55.28125 12.296875 C 55.28125 9.601562 53.089844 7.414062 50.382812 7.414062 L 19.046875 7.414062 C 16.34375 7.414062 14.152344 9.601562 14.152344 12.296875 Z M 14.152344 13.761719 "/>
<path style=" stroke:none;fill-rule:nonzero;fill:rgb(6.27451%,9.411765%,12.54902%);fill-opacity:1;" d="M 34.226562 35.234375 L 31.777344 35.234375 C 31.238281 35.234375 30.796875 34.796875 30.796875 34.257812 C 30.796875 33.71875 31.238281 33.28125 31.777344 33.28125 L 34.226562 33.28125 C 34.765625 33.28125 35.207031 33.71875 35.207031 34.257812 C 35.207031 34.796875 34.765625 35.234375 34.226562 35.234375 Z M 34.226562 35.234375 "/>
<path style=" stroke:none;fill-rule:nonzero;fill:rgb(6.27451%,9.411765%,12.54902%);fill-opacity:1;" d="M 25.902344 24.007812 L 23.453125 24.007812 C 22.914062 24.007812 22.472656 23.574219 22.472656 23.035156 C 22.472656 22.496094 22.914062 22.058594 23.453125 22.058594 L 25.902344 22.058594 C 26.441406 22.058594 26.882812 22.496094 26.882812 23.035156 C 26.882812 23.574219 26.441406 24.007812 25.902344 24.007812 Z M 25.902344 24.007812 "/>
<path style=" stroke:none;fill-rule:nonzero;fill:rgb(6.27451%,9.411765%,12.54902%);fill-opacity:1;" d="M 38.632812 24.007812 L 36.183594 24.007812 C 35.644531 24.007812 35.207031 23.574219 35.207031 23.035156 C 35.207031 22.496094 35.644531 22.058594 36.183594 22.058594 L 38.632812 22.058594 C 39.171875 22.058594 39.613281 22.496094 39.613281 23.035156 C 39.613281 23.574219 39.171875 24.007812 38.632812 24.007812 Z M 38.632812 24.007812 "/>
<path style=" stroke:none;fill-rule:nonzero;fill:rgb(90.980392%,25.490196%,18.823529%);fill-opacity:1;" d="M 25.902344 32.550781 C 25.902344 34.035156 24.695312 35.234375 23.207031 35.234375 C 21.722656 35.234375 20.515625 34.035156 20.515625 32.550781 C 20.515625 31.070312 21.722656 29.867188 23.207031 29.867188 C 24.695312 29.867188 25.902344 31.070312 25.902344 32.550781 Z M 25.902344 32.550781 "/>
<path style=" stroke:none;fill-rule:nonzero;fill:rgb(90.980392%,25.490196%,18.823529%);fill-opacity:1;" d="M 45.976562 32.550781 C 45.976562 34.035156 44.769531 35.234375 43.285156 35.234375 C 41.796875 35.234375 40.589844 34.035156 40.589844 32.550781 C 40.589844 31.070312 41.796875 29.867188 43.285156 29.867188 C 44.769531 29.867188 45.976562 31.070312 45.976562 32.550781 Z M 45.976562 32.550781 "/>
<path style=" stroke:none;fill-rule:nonzero;fill:rgb(100%,100%,100%);fill-opacity:1;" d="M 35.867188 25.960938 C 35.753906 26.484375 35.695312 27.015625 35.695312 27.546875 C 35.695312 30.714844 37.652344 33.28125 40.101562 33.28125 C 42.550781 33.28125 44.507812 30.714844 44.507812 27.546875 C 44.507812 27.015625 44.449219 26.484375 44.332031 25.960938 Z M 35.867188 25.960938 "/>
<path style=" stroke:none;fill-rule:nonzero;fill:rgb(6.27451%,9.411765%,12.54902%);fill-opacity:1;" d="M 40.101562 34.015625 C 37.265625 34.015625 34.960938 31.117188 34.960938 27.546875 C 34.960938 26.960938 35.023438 26.378906 35.152344 25.804688 C 35.226562 25.46875 35.523438 25.230469 35.867188 25.230469 L 44.332031 25.230469 C 44.675781 25.234375 44.96875 25.472656 45.046875 25.804688 C 45.171875 26.378906 45.238281 26.960938 45.238281 27.546875 C 45.242188 31.117188 42.9375 34.015625 40.101562 34.015625 Z M 36.484375 26.695312 C 36.449219 26.976562 36.429688 27.261719 36.429688 27.546875 C 36.429688 30.304688 38.074219 32.550781 40.101562 32.550781 C 42.128906 32.550781 43.773438 30.304688 43.773438 27.546875 C 43.773438 27.261719 43.753906 26.976562 43.714844 26.695312 Z M 36.484375 26.695312 "/>
<path style=" stroke:none;fill-rule:nonzero;fill:rgb(6.27451%,9.411765%,12.54902%);fill-opacity:1;" d="M 36.425781 25.960938 C 36.265625 26.515625 36.183594 27.09375 36.183594 27.671875 C 36.183594 30.234375 37.71875 32.308594 39.613281 32.308594 C 41.507812 32.308594 43.039062 30.234375 43.039062 27.671875 C 43.039062 27.09375 42.957031 26.515625 42.792969 25.960938 Z M 36.425781 25.960938 "/>
<path style=" stroke:none;fill-rule:nonzero;fill:rgb(100%,100%,100%);fill-opacity:1;" d="M 38.632812 27.425781 C 38.632812 27.695312 38.414062 27.914062 38.144531 27.914062 C 37.871094 27.914062 37.652344 27.695312 37.652344 27.425781 C 37.652344 27.15625 37.871094 26.9375 38.144531 26.9375 C 38.414062 26.9375 38.632812 27.15625 38.632812 27.425781 Z M 38.632812 27.425781 "/>
<path style=" stroke:none;fill-rule:nonzero;fill:rgb(100%,100%,100%);fill-opacity:1;" d="M 39.34375 27.96875 C 39.476562 27.976562 39.582031 28.089844 39.578125 28.222656 L 39.53125 29.199219 C 39.523438 29.332031 39.410156 29.4375 39.273438 29.429688 C 39.140625 29.425781 39.035156 29.3125 39.042969 29.175781 L 39.085938 28.199219 C 39.09375 28.066406 39.207031 27.960938 39.34375 27.96875 Z M 39.34375 27.96875 "/>
<path style=" stroke:none;fill-rule:nonzero;fill:rgb(100%,100%,100%);fill-opacity:1;" d="M 40.042969 28.738281 C 40.035156 28.875 39.921875 28.980469 39.785156 28.972656 L 38.808594 28.925781 C 38.671875 28.921875 38.570312 28.804688 38.574219 28.671875 C 38.582031 28.535156 38.695312 28.433594 38.832031 28.4375 L 39.808594 28.484375 C 39.945312 28.492188 40.046875 28.605469 40.042969 28.738281 Z M 40.042969 28.738281 "/>
<path style=" stroke:none;fill-rule:nonzero;fill:rgb(100%,100%,100%);fill-opacity:1;" d="M 37.433594 28.402344 L 37.539062 28.535156 C 37.5625 28.558594 37.59375 28.570312 37.625 28.566406 L 37.796875 28.566406 C 37.832031 28.566406 37.867188 28.582031 37.886719 28.613281 C 37.90625 28.644531 37.90625 28.683594 37.886719 28.714844 L 37.796875 28.859375 C 37.78125 28.886719 37.78125 28.921875 37.796875 28.949219 L 37.863281 29.105469 C 37.878906 29.140625 37.871094 29.175781 37.847656 29.207031 C 37.824219 29.234375 37.785156 29.246094 37.75 29.238281 L 37.585938 29.191406 C 37.554688 29.1875 37.519531 29.195312 37.496094 29.21875 L 37.363281 29.328125 C 37.335938 29.351562 37.296875 29.355469 37.265625 29.339844 C 37.234375 29.328125 37.210938 29.296875 37.207031 29.261719 L 37.207031 29.089844 C 37.203125 29.058594 37.1875 29.03125 37.160156 29.011719 L 37.011719 28.925781 C 36.980469 28.90625 36.960938 28.875 36.960938 28.839844 C 36.960938 28.804688 36.980469 28.769531 37.011719 28.753906 L 37.171875 28.691406 C 37.203125 28.679688 37.222656 28.652344 37.230469 28.621094 L 37.269531 28.457031 C 37.273438 28.417969 37.300781 28.386719 37.335938 28.375 C 37.371094 28.363281 37.40625 28.375 37.433594 28.402344 Z M 37.433594 28.402344 "/>
<path style=" stroke:none;fill-rule:nonzero;fill:rgb(100%,100%,100%);fill-opacity:1;" d="M 23.136719 25.960938 C 23.023438 26.484375 22.964844 27.015625 22.964844 27.546875 C 22.964844 30.714844 24.921875 33.28125 27.371094 33.28125 C 29.820312 33.28125 31.777344 30.714844 31.777344 27.546875 C 31.777344 27.015625 31.71875 26.484375 31.601562 25.960938 Z M 23.136719 25.960938 "/>
<path style=" stroke:none;fill-rule:nonzero;fill:rgb(6.27451%,9.411765%,12.54902%);fill-opacity:1;" d="M 27.371094 34.015625 C 24.535156 34.015625 22.230469 31.117188 22.230469 27.546875 C 22.230469 26.960938 22.292969 26.378906 22.421875 25.804688 C 22.492188 25.46875 22.792969 25.230469 23.136719 25.230469 L 31.601562 25.230469 C 31.945312 25.234375 32.238281 25.472656 32.316406 25.804688 C 32.441406 26.378906 32.507812 26.960938 32.507812 27.546875 C 32.511719 31.117188 30.207031 34.015625 27.371094 34.015625 Z M 23.753906 26.695312 C 23.71875 26.976562 23.699219 27.261719 23.699219 27.546875 C 23.699219 30.304688 25.34375 32.550781 27.371094 32.550781 C 29.398438 32.550781 31.042969 30.304688 31.042969 27.546875 C 31.042969 27.261719 31.023438 26.976562 30.984375 26.695312 Z M 23.753906 26.695312 "/>
<path style=" stroke:none;fill-rule:nonzero;fill:rgb(6.27451%,9.411765%,12.54902%);fill-opacity:1;" d="M 23.695312 25.960938 C 23.535156 26.515625 23.453125 27.09375 23.453125 27.671875 C 23.453125 30.234375 24.984375 32.308594 26.882812 32.308594 C 28.777344 32.308594 30.308594 30.234375 30.308594 27.671875 C 30.308594 27.09375 30.226562 26.515625 30.0625 25.960938 Z M 23.695312 25.960938 "/>
<path style=" stroke:none;fill-rule:nonzero;fill:rgb(100%,100%,100%);fill-opacity:1;" d="M 25.902344 27.425781 C 25.902344 27.695312 25.683594 27.914062 25.414062 27.914062 C 25.140625 27.914062 24.921875 27.695312 24.921875 27.425781 C 24.921875 27.15625 25.140625 26.9375 25.414062 26.9375 C 25.683594 26.9375 25.902344 27.15625 25.902344 27.425781 Z M 25.902344 27.425781 "/>
<path style=" stroke:none;fill-rule:nonzero;fill:rgb(100%,100%,100%);fill-opacity:1;" d="M 26.613281 27.964844 C 26.746094 27.972656 26.851562 28.085938 26.84375 28.222656 L 26.800781 29.195312 C 26.792969 29.332031 26.679688 29.433594 26.542969 29.429688 C 26.410156 29.421875 26.304688 29.308594 26.308594 29.171875 L 26.355469 28.199219 C 26.363281 28.0625 26.476562 27.960938 26.613281 27.964844 Z M 26.613281 27.964844 "/>
<path style=" stroke:none;fill-rule:nonzero;fill:rgb(100%,100%,100%);fill-opacity:1;" d="M 27.3125 28.738281 C 27.308594 28.875 27.191406 28.976562 27.058594 28.972656 L 26.078125 28.925781 C 25.945312 28.917969 25.839844 28.804688 25.847656 28.671875 C 25.851562 28.535156 25.96875 28.433594 26.101562 28.4375 L 27.082031 28.484375 C 27.214844 28.492188 27.320312 28.605469 27.3125 28.738281 Z M 27.3125 28.738281 "/>
<path style=" stroke:none;fill-rule:nonzero;fill:rgb(100%,100%,100%);fill-opacity:1;" d="M 24.703125 28.402344 L 24.808594 28.535156 C 24.828125 28.558594 24.863281 28.570312 24.894531 28.566406 L 25.066406 28.566406 C 25.101562 28.566406 25.136719 28.582031 25.15625 28.613281 C 25.175781 28.644531 25.175781 28.683594 25.15625 28.714844 L 25.066406 28.859375 C 25.050781 28.886719 25.050781 28.921875 25.066406 28.949219 L 25.132812 29.105469 C 25.148438 29.140625 25.140625 29.175781 25.117188 29.207031 C 25.09375 29.234375 25.054688 29.246094 25.019531 29.238281 L 24.855469 29.191406 C 24.824219 29.1875 24.789062 29.195312 24.765625 29.21875 L 24.632812 29.328125 C 24.605469 29.351562 24.566406 29.355469 24.535156 29.339844 C 24.503906 29.328125 24.480469 29.296875 24.476562 29.261719 L 24.476562 29.089844 C 24.472656 29.058594 24.457031 29.03125 24.429688 29.011719 L 24.28125 28.925781 C 24.25 28.90625 24.230469 28.875 24.230469 28.839844 C 24.230469 28.804688 24.25 28.769531 24.28125 28.753906 L 24.441406 28.691406 C 24.472656 28.679688 24.492188 28.652344 24.5 28.621094 L 24.539062 28.457031 C 24.542969 28.417969 24.570312 28.386719 24.605469 28.375 C 24.640625 28.363281 24.675781 28.375 24.703125 28.402344 Z M 24.703125 28.402344 "/>
</g>
</svg>
