<?xml version="1.0" encoding="UTF-8"?>
<svg xmlns="http://www.w3.org/2000/svg" xmlns:xlink="http://www.w3.org/1999/xlink" width="100pt" height="99pt" viewBox="0 0 100 99" version="1.1">
<g id="surface1">
<path style=" stroke:none;fill-rule:nonzero;fill:rgb(0%,0%,0%);fill-opacity:1;" d="M 49.707031 9.488281 C 47.265625 10.011719 45.488281 11.136719 44.335938 12.820312 C 43.574219 13.964844 42.773438 16.074219 42.773438 16.945312 C 42.773438 17.585938 42.578125 17.644531 41.503906 17.332031 C 40.175781 16.925781 37.988281 16.964844 36.679688 17.410156 C 35.253906 17.894531 34.257812 18.535156 33.261719 19.617188 C 30.898438 22.175781 30.46875 25.503906 31.738281 31.761719 C 32.402344 35.015625 34.296875 43.304688 35.527344 48.414062 C 35.839844 49.730469 36.074219 50.855469 36.054688 50.894531 C 36.015625 50.914062 35.488281 50.71875 34.863281 50.46875 C 32.832031 49.578125 30.605469 48.976562 28.90625 48.859375 C 25.976562 48.667969 22.34375 49.867188 20.605469 51.609375 C 19.355469 52.851562 18.886719 53.953125 18.789062 55.96875 C 18.691406 58.039062 19.101562 59.746094 20.019531 61.160156 C 21.25 62.980469 23.027344 63.984375 26.796875 64.992188 C 30.742188 66.019531 31.289062 66.347656 32.753906 68.554688 C 35.527344 72.71875 36.523438 73.726562 39.355469 75.179688 C 40.214844 75.605469 40.957031 75.992188 40.996094 76.03125 C 41.035156 76.070312 40.917969 76.4375 40.742188 76.882812 C 40.332031 77.890625 40.332031 80.410156 40.722656 81.550781 C 40.898438 82.015625 41.347656 82.867188 41.738281 83.429688 C 44.375 87.246094 53.339844 90.265625 59.765625 89.492188 C 63.886719 88.988281 66.855469 87.863281 68.4375 86.179688 C 69.960938 84.570312 71.074219 81.609375 71.09375 79.207031 C 71.09375 78.433594 71.171875 78.277344 71.660156 77.988281 C 72.675781 77.40625 74.179688 76.011719 75.195312 74.773438 C 78.59375 70.570312 79.472656 64.199219 77.8125 55.929688 L 77.304688 53.449219 L 77.910156 51.476562 C 79.765625 45.179688 81.132812 37.820312 81.152344 33.890625 C 81.152344 31.875 81.113281 31.566406 80.625 30.539062 C 79.980469 29.183594 78.457031 27.539062 77.1875 26.859375 C 76.015625 26.222656 74.238281 25.757812 73.027344 25.757812 C 72.167969 25.757812 72.109375 25.71875 71.992188 25.15625 C 71.933594 24.828125 71.875 24.015625 71.875 23.355469 C 71.875 20.023438 70.175781 17.273438 67.207031 15.820312 C 66.015625 15.242188 65.78125 15.203125 63.964844 15.203125 C 62.304688 15.203125 61.835938 15.28125 60.820312 15.707031 L 59.628906 16.191406 L 59.316406 15.355469 C 58.164062 12.257812 54.804688 9.625 51.757812 9.410156 C 51.054688 9.355469 50.136719 9.394531 49.707031 9.488281 Z M 52.832031 15.28125 C 54.042969 16.09375 54.472656 17.0625 54.785156 19.695312 C 55.078125 22.15625 55.683594 31.566406 56.132812 40.417969 C 56.347656 44.582031 56.484375 46.015625 56.738281 46.460938 C 57.597656 48.125 60.019531 48.222656 61.191406 46.632812 C 61.660156 45.996094 61.660156 46.519531 61.464844 33.058594 C 61.308594 22.988281 61.308594 22.019531 61.621094 21.574219 C 62.089844 20.839844 63.066406 20.335938 64.003906 20.335938 C 65.019531 20.335938 66.054688 21.148438 66.445312 22.230469 C 66.835938 23.355469 66.777344 36.601562 66.328125 41.347656 C 65.78125 47.542969 65.742188 48.339844 66.015625 48.996094 C 66.796875 50.855469 69.6875 50.933594 70.644531 49.113281 C 71.035156 48.355469 71.582031 42.703125 71.914062 36.058594 C 72.148438 31.199219 72.148438 31.160156 72.597656 31.0625 C 73.710938 30.773438 75.117188 31.449219 75.683594 32.535156 C 76.074219 33.308594 76.054688 34.238281 75.507812 37.957031 C 74.921875 41.945312 73.886719 46.554688 72.8125 49.964844 C 72.363281 51.398438 71.992188 52.929688 71.992188 53.355469 C 71.992188 53.78125 72.246094 55.25 72.558594 56.644531 C 73.066406 58.894531 73.125 59.53125 73.125 62.554688 C 73.144531 66.386719 72.929688 67.433594 71.738281 69.796875 C 70.488281 72.273438 67.792969 74.425781 64.726562 75.410156 C 62.832031 76.03125 62.050781 77.542969 62.832031 79.148438 C 63.222656 79.980469 64.121094 80.5625 65 80.5625 L 65.625 80.5625 L 65.332031 81.28125 C 64.648438 82.886719 63.359375 83.605469 60.097656 84.164062 C 54.394531 85.152344 45.703125 82.171875 45.703125 79.226562 C 45.703125 78.976562 45.878906 78.472656 46.113281 78.105469 C 46.425781 77.601562 46.621094 77.484375 46.914062 77.582031 C 48.652344 78.125 50.585938 76.050781 50 74.289062 C 49.628906 73.164062 48.886719 72.644531 47.148438 72.332031 C 42.578125 71.460938 39.785156 69.855469 38.144531 67.125 C 36.953125 65.128906 35.507812 63.308594 34.550781 62.554688 C 33.378906 61.644531 31.269531 60.75 28.496094 60.035156 C 27.324219 59.726562 25.976562 59.261719 25.507812 58.988281 C 24.101562 58.175781 23.574219 56.394531 24.433594 55.328125 C 24.902344 54.710938 26.953125 54.03125 28.320312 54.03125 C 29.609375 54.03125 31.796875 54.785156 34.726562 56.238281 C 38.183594 57.964844 38.75 58.097656 42.246094 58.097656 C 44.980469 58.097656 45.273438 58.136719 46.953125 58.699219 C 47.929688 59.007812 49.140625 59.550781 49.648438 59.878906 C 50.898438 60.65625 52.304688 62.222656 53.085938 63.675781 C 53.945312 65.265625 54.667969 65.84375 55.78125 65.84375 C 57.441406 65.84375 58.457031 64.894531 58.476562 63.308594 C 58.496094 62.589844 58.320312 62.164062 57.539062 60.847656 C 55.117188 56.878906 53.007812 55.214844 48.515625 53.722656 C 46.699219 53.101562 46.054688 52.984375 44.199219 52.910156 L 42.011719 52.832031 L 41.210938 49.5 C 39.667969 43.109375 37.519531 33.773438 36.914062 30.734375 C 36.230469 27.382812 36.171875 24.847656 36.71875 23.722656 C 37.480469 22.230469 39.648438 21.769531 40.878906 22.851562 C 41.425781 23.316406 41.679688 23.839844 42.34375 25.894531 C 44.0625 31.179688 45.117188 35.691406 46.386719 43.148438 C 46.757812 45.296875 47.148438 47.234375 47.265625 47.464844 C 47.871094 48.570312 50.039062 48.996094 51.054688 48.203125 C 51.699219 47.699219 52.148438 46.867188 52.148438 46.167969 C 52.148438 44.621094 50.253906 34.664062 49.101562 30.210938 C 48.242188 26.859375 47.851562 23.820312 47.851562 20.625 C 47.851562 16.828125 48.398438 15.414062 50.097656 14.816406 C 51.074219 14.464844 51.835938 14.601562 52.832031 15.28125 Z M 52.832031 15.28125 "/>
</g>
</svg>
