<?xml version="1.0" standalone="no"?>
<!DOCTYPE svg PUBLIC "-//W3C//DTD SVG 20010904//EN"
 "http://www.w3.org/TR/2001/REC-SVG-20010904/DTD/svg10.dtd">
<svg version="1.0" xmlns="http://www.w3.org/2000/svg"
 width="130.000000pt" height="130.000000pt" viewBox="0 0 130.000000 130.000000"
 preserveAspectRatio="xMidYMid meet">

<g transform="translate(0.000000,100.000000) scale(0.100000,-0.100000)"
fill="#000000" stroke="none">
<path d="M490 903 c-25 -9 -60 -46 -60 -63 0 -13 -7 -16 -30 -12 -23 3 -36 -3
-60 -26 -37 -38 -38 -61 -6 -202 13 -58 23 -106 22 -107 -1 -1 -19 2 -40 8
-44 12 -101 -3 -116 -31 -28 -52 3 -111 65 -125 37 -9 139 -113 136 -138 -9
-67 119 -128 221 -106 52 11 88 46 88 83 0 12 13 35 29 50 38 37 56 106 43
174 -7 39 -5 65 9 118 26 102 25 159 -6 189 -13 14 -33 25 -45 25 -15 0 -20 6
-20 26 0 15 -12 38 -30 56 -25 25 -36 29 -61 24 -24 -5 -35 0 -57 23 -29 31
-57 43 -82 34z m49 -71 c5 -10 12 -74 16 -142 8 -158 10 -170 35 -170 24 0 24
-2 25 145 0 116 1 120 22 123 32 5 37 -27 28 -169 -6 -106 -5 -120 10 -125 27
-11 35 8 41 104 7 91 15 106 38 69 7 -11 4 -43 -11 -114 -15 -69 -20 -117 -16
-162 7 -78 -11 -120 -63 -144 -34 -17 -47 -51 -21 -60 9 -3 9 -7 -2 -20 -28
-34 -181 -11 -181 27 0 8 9 20 21 26 32 18 19 42 -31 56 -35 10 -53 23 -76 56
-24 34 -41 47 -80 59 -37 11 -49 20 -49 34 0 29 47 31 105 6 27 -12 68 -21 91
-21 36 0 47 -5 80 -41 39 -42 59 -44 59 -5 0 33 -58 83 -113 98 -53 14 -49 5
-87 177 -11 51 -18 101 -15 111 7 23 31 32 43 17 12 -15 37 -102 53 -185 12
-64 30 -85 52 -63 9 9 6 39 -11 124 -22 111 -28 188 -15 200 13 13 42 7 52
-11z"/>
</g>
</svg>
