<?xml version="1.0" encoding="UTF-8"?>
<svg xmlns="http://www.w3.org/2000/svg" xmlns:xlink="http://www.w3.org/1999/xlink" width="54px" height="140px" viewBox="0 0 54 137" version="1.1">
<g id="surface1">
<path style=" stroke:none;fill-rule:nonzero;fill:rgb(6.27451%,9.411765%,12.54902%);fill-opacity:1;" d="M 46.3125 53.15625 C 45.035156 53.152344 43.875 52.421875 43.335938 51.273438 C 42.792969 50.125 42.964844 48.769531 43.773438 47.792969 C 44.039062 47.464844 49.605469 40.398438 45.695312 29.050781 C 41.433594 16.621094 28.90625 5.863281 28.785156 5.765625 C 27.402344 4.589844 27.238281 2.523438 28.421875 1.148438 C 29.605469 -0.226562 31.683594 -0.390625 33.066406 0.785156 C 33.636719 1.265625 47.082031 12.800781 51.933594 26.933594 C 57.09375 41.929688 49.175781 51.570312 48.835938 51.976562 C 48.210938 52.722656 47.289062 53.152344 46.3125 53.15625 Z M 46.3125 53.15625 "/>
<path style=" stroke:none;fill-rule:nonzero;fill:rgb(6.27451%,9.411765%,12.54902%);fill-opacity:1;" d="M 7.699219 53.15625 C 6.722656 53.152344 5.796875 52.722656 5.171875 51.976562 C 4.832031 51.570312 -3.085938 41.929688 2.078125 26.933594 C 6.929688 12.832031 20.417969 1.265625 20.945312 0.785156 C 22.328125 -0.390625 24.40625 -0.226562 25.589844 1.148438 C 26.773438 2.523438 26.609375 4.589844 25.226562 5.765625 C 25.105469 5.863281 12.574219 16.6875 8.316406 29.050781 C 4.339844 40.648438 10.160156 47.707031 10.226562 47.769531 C 10.785156 48.4375 11.058594 49.300781 10.980469 50.167969 C 10.902344 51.035156 10.480469 51.832031 9.808594 52.390625 C 9.21875 52.882812 8.472656 53.152344 7.699219 53.15625 Z M 7.699219 53.15625 "/>
<path style=" stroke:none;fill-rule:nonzero;fill:rgb(6.27451%,9.411765%,12.54902%);fill-opacity:1;" d="M 22.613281 117.613281 C 21.164062 117.632812 19.871094 116.707031 19.433594 115.332031 C 18.992188 113.957031 19.507812 112.457031 20.703125 111.640625 C 20.703125 111.640625 25.390625 108.363281 36.890625 100.03125 C 39.921875 97.847656 39.953125 95.957031 39.964844 95.335938 C 40.019531 91.46875 35.375 87.023438 33.75 85.765625 C 32.761719 85.070312 32.238281 83.894531 32.382812 82.699219 C 32.53125 81.503906 33.324219 80.484375 34.449219 80.042969 C 35.574219 79.605469 36.855469 79.8125 37.777344 80.589844 C 38.691406 81.289062 46.671875 87.644531 46.5625 95.433594 C 46.5625 98.074219 45.464844 101.984375 40.777344 105.339844 C 29.246094 113.648438 24.554688 117.003906 24.554688 117.003906 C 23.988281 117.40625 23.308594 117.621094 22.613281 117.613281 Z M 22.613281 117.613281 "/>
<path style=" stroke:none;fill-rule:nonzero;fill:rgb(6.27451%,9.411765%,12.54902%);fill-opacity:1;" d="M 15.320312 137 C 17.007812 137 18.375 135.640625 18.375 133.964844 L 18.375 86.617188 C 18.277344 85.007812 16.9375 83.753906 15.316406 83.753906 C 13.695312 83.753906 12.355469 85.007812 12.257812 86.617188 L 12.257812 133.964844 C 12.257812 134.769531 12.582031 135.542969 13.15625 136.113281 C 13.730469 136.683594 14.507812 137.003906 15.320312 137 Z M 15.320312 137 "/>
<path style=" stroke:none;fill-rule:nonzero;fill:rgb(9.803922%,43.921569%,69.019608%);fill-opacity:1;" d="M 42.378906 84.105469 L 11.632812 84.105469 C 8.78125 84.105469 6.46875 81.808594 6.46875 78.972656 L 6.46875 44.953125 C 6.472656 39.992188 8.457031 35.238281 11.988281 31.734375 C 15.519531 28.230469 20.304688 26.269531 25.292969 26.277344 L 28.71875 26.277344 C 39.089844 26.277344 47.503906 34.636719 47.507812 44.953125 L 47.507812 78.972656 C 47.507812 81.808594 45.199219 84.105469 42.347656 84.105469 Z M 42.378906 84.105469 "/>
<path style=" stroke:none;fill-rule:nonzero;fill:rgb(6.27451%,9.411765%,12.54902%);fill-opacity:1;" d="M 5.570312 78.503906 L 5.570312 46.667969 C 5.210938 38.828125 9.214844 31.429688 15.988281 27.402344 C 22.757812 23.378906 31.207031 23.378906 37.980469 27.402344 C 44.753906 31.429688 48.753906 38.828125 48.398438 46.667969 L 48.398438 78.503906 C 48.398438 82.125 45.449219 85.058594 41.808594 85.058594 L 12.148438 85.058594 C 8.511719 85.050781 5.570312 82.117188 5.570312 78.503906 Z M 7.445312 46.667969 L 7.445312 78.503906 C 7.445312 81.085938 9.550781 83.179688 12.148438 83.179688 L 41.863281 83.179688 C 44.460938 83.179688 46.5625 81.085938 46.5625 78.503906 L 46.5625 46.667969 C 46.5625 35.925781 37.808594 27.214844 27.003906 27.214844 C 16.203125 27.214844 7.445312 35.925781 7.445312 46.667969 Z M 7.445312 46.667969 "/>
<path style=" stroke:none;fill-rule:nonzero;fill:rgb(90.980392%,25.490196%,18.823529%);fill-opacity:1;" d="M 45.804688 86.421875 L 8.203125 86.421875 C 5.316406 86.421875 2.976562 84.09375 2.976562 81.222656 L 2.976562 80.273438 C 2.976562 77.402344 5.316406 75.074219 8.203125 75.074219 L 45.804688 75.074219 C 48.691406 75.074219 51.035156 77.402344 51.035156 80.273438 L 51.035156 81.222656 C 51.035156 84.09375 48.691406 86.421875 45.804688 86.421875 Z M 45.804688 86.421875 "/>
<path style=" stroke:none;fill-rule:nonzero;fill:rgb(6.27451%,9.411765%,12.54902%);fill-opacity:1;" d="M 2.03125 82.949219 L 2.03125 78.582031 C 2.03125 76.167969 4 74.210938 6.425781 74.210938 L 47.542969 74.210938 C 49.96875 74.210938 51.933594 76.167969 51.933594 78.582031 L 51.933594 82.949219 C 51.933594 85.363281 49.96875 87.316406 47.542969 87.316406 L 6.46875 87.316406 C 5.296875 87.328125 4.167969 86.875 3.335938 86.054688 C 2.5 85.234375 2.03125 84.117188 2.03125 82.949219 Z M 6.425781 76.015625 C 5.046875 76.054688 3.949219 77.175781 3.945312 78.546875 L 3.945312 82.917969 C 3.949219 84.316406 5.09375 85.449219 6.503906 85.449219 L 47.542969 85.449219 C 48.925781 85.433594 50.042969 84.324219 50.066406 82.949219 L 50.066406 78.582031 C 50.0625 77.179688 48.917969 76.046875 47.507812 76.046875 Z M 6.425781 76.015625 "/>
<path style=" stroke:none;fill-rule:nonzero;fill:rgb(100%,100%,100%);fill-opacity:1;" d="M 13.078125 62.621094 L 12.792969 62.628906 C 11.902344 62.648438 11.164062 61.945312 11.144531 61.058594 L 10.957031 52.015625 C 10.9375 51.128906 11.644531 50.394531 12.535156 50.378906 L 12.820312 50.371094 C 13.714844 50.351562 14.449219 51.058594 14.46875 51.941406 L 14.660156 60.984375 C 14.675781 61.871094 13.96875 62.605469 13.078125 62.621094 Z M 13.078125 62.621094 "/>
<path style=" stroke:none;fill-rule:nonzero;fill:rgb(100%,100%,100%);fill-opacity:1;" d="M 14.453125 65.792969 C 14.453125 66.59375 13.800781 67.242188 12.992188 67.242188 C 12.1875 67.242188 11.53125 66.59375 11.53125 65.792969 C 11.53125 64.988281 12.1875 64.339844 12.992188 64.339844 C 13.800781 64.339844 14.453125 64.988281 14.453125 65.792969 Z M 14.453125 65.792969 "/>
<path style=" stroke:none;fill-rule:nonzero;fill:rgb(90.980392%,25.490196%,18.823529%);fill-opacity:1;" d="M 41.414062 48.242188 C 41.414062 49.65625 40.257812 50.808594 38.832031 50.808594 C 37.40625 50.808594 36.253906 49.65625 36.253906 48.242188 C 36.253906 46.824219 37.40625 45.675781 38.832031 45.675781 C 40.257812 45.675781 41.414062 46.824219 41.414062 48.242188 Z M 41.414062 48.242188 "/>
<path style=" stroke:none;fill-rule:nonzero;fill:rgb(90.980392%,25.490196%,18.823529%);fill-opacity:1;" d="M 22.625 48.242188 C 22.625 49.65625 21.46875 50.808594 20.042969 50.808594 C 18.617188 50.808594 17.460938 49.65625 17.460938 48.242188 C 17.460938 46.824219 18.617188 45.675781 20.042969 45.675781 C 21.46875 45.675781 22.625 46.824219 22.625 48.242188 Z M 22.625 48.242188 "/>
<path style=" stroke:none;fill-rule:nonzero;fill:rgb(6.27451%,9.411765%,12.54902%);fill-opacity:1;" d="M 28.742188 51.746094 L 30.617188 51.746094 C 31.097656 51.695312 31.460938 51.292969 31.460938 50.8125 C 31.460938 50.332031 31.097656 49.929688 30.617188 49.878906 L 28.742188 49.878906 C 28.382812 49.839844 28.03125 50.007812 27.839844 50.3125 C 27.644531 50.617188 27.644531 51.007812 27.839844 51.3125 C 28.03125 51.617188 28.382812 51.785156 28.742188 51.746094 Z M 28.742188 51.746094 "/>
<path style=" stroke:none;fill-rule:nonzero;fill:rgb(6.27451%,9.411765%,12.54902%);fill-opacity:1;" d="M 24.972656 39.132812 L 26.863281 39.132812 C 27.378906 39.125 27.796875 38.707031 27.796875 38.191406 C 27.796875 37.679688 27.378906 37.265625 26.863281 37.265625 L 24.972656 37.265625 C 24.457031 37.265625 24.039062 37.679688 24.039062 38.191406 C 24.039062 38.707031 24.457031 39.125 24.972656 39.132812 Z M 24.972656 39.132812 "/>
<path style=" stroke:none;fill-rule:nonzero;fill:rgb(6.27451%,9.411765%,12.54902%);fill-opacity:1;" d="M 33.902344 39.132812 L 35.789062 39.132812 C 36.308594 39.125 36.722656 38.707031 36.722656 38.191406 C 36.722656 37.679688 36.304688 37.265625 35.789062 37.265625 L 33.902344 37.265625 C 33.386719 37.265625 32.96875 37.679688 32.96875 38.191406 C 32.96875 38.707031 33.382812 39.125 33.902344 39.132812 Z M 33.902344 39.132812 "/>
<path style=" stroke:none;fill-rule:nonzero;fill:rgb(100%,100%,100%);fill-opacity:1;" d="M 38.128906 45.203125 C 38.128906 47.527344 36.238281 49.410156 33.902344 49.410156 C 31.566406 49.410156 29.675781 47.527344 29.675781 45.203125 C 29.675781 42.882812 31.566406 41 33.902344 41 C 36.238281 41 38.128906 42.882812 38.128906 45.203125 Z M 38.128906 45.203125 "/>
<path style=" stroke:none;fill-rule:nonzero;fill:rgb(6.27451%,9.411765%,12.54902%);fill-opacity:1;" d="M 33.902344 50.109375 C 31.179688 50.101562 28.976562 47.902344 28.980469 45.195312 C 28.984375 42.488281 31.195312 40.296875 33.917969 40.300781 C 36.636719 40.300781 38.84375 42.496094 38.84375 45.203125 C 38.835938 47.914062 36.628906 50.109375 33.902344 50.109375 Z M 33.902344 41.699219 C 31.957031 41.699219 30.375 43.269531 30.375 45.203125 C 30.375 47.140625 31.957031 48.710938 33.902344 48.710938 C 35.847656 48.710938 37.425781 47.140625 37.425781 45.203125 C 37.402344 43.285156 35.832031 41.742188 33.902344 41.742188 Z M 33.902344 41.699219 "/>
<path style=" stroke:none;fill-rule:nonzero;fill:rgb(6.27451%,9.411765%,12.54902%);fill-opacity:1;" d="M 37.65625 45.203125 C 37.65625 43.140625 36.34375 41.46875 34.726562 41.46875 C 33.105469 41.46875 31.792969 43.140625 31.792969 45.203125 C 31.792969 47.265625 33.105469 48.941406 34.726562 48.941406 C 36.34375 48.941406 37.65625 47.265625 37.65625 45.203125 Z M 37.65625 45.203125 "/>
<path style=" stroke:none;fill-rule:nonzero;fill:rgb(100%,100%,100%);fill-opacity:1;" d="M 29.675781 45.203125 C 29.675781 47.527344 27.78125 49.410156 25.445312 49.410156 C 23.109375 49.410156 21.21875 47.527344 21.21875 45.203125 C 21.21875 42.882812 23.109375 41 25.445312 41 C 27.78125 41 29.675781 42.882812 29.675781 45.203125 Z M 29.675781 45.203125 "/>
<path style=" stroke:none;fill-rule:nonzero;fill:rgb(6.27451%,9.411765%,12.54902%);fill-opacity:1;" d="M 25.445312 50.109375 C 22.722656 50.109375 20.515625 47.914062 20.515625 45.203125 C 20.515625 42.496094 22.722656 40.300781 25.445312 40.300781 C 28.167969 40.300781 30.375 42.496094 30.375 45.203125 C 30.375 47.914062 28.167969 50.109375 25.445312 50.109375 Z M 25.445312 41.699219 C 23.5 41.699219 21.921875 43.269531 21.921875 45.203125 C 21.921875 47.140625 23.5 48.710938 25.445312 48.710938 C 27.394531 48.710938 28.972656 47.140625 28.972656 45.203125 C 28.945312 43.285156 27.375 41.742188 25.445312 41.742188 Z M 25.445312 41.699219 "/>
<path style=" stroke:none;fill-rule:nonzero;fill:rgb(6.27451%,9.411765%,12.54902%);fill-opacity:1;" d="M 29.203125 45.203125 C 29.203125 43.140625 27.890625 41.46875 26.269531 41.46875 C 24.648438 41.46875 23.335938 43.140625 23.335938 45.203125 C 23.335938 47.265625 24.648438 48.941406 26.269531 48.941406 C 27.890625 48.941406 29.203125 47.265625 29.203125 45.203125 Z M 29.203125 45.203125 "/>
<path style=" stroke:none;fill-rule:nonzero;fill:rgb(100%,100%,100%);fill-opacity:1;" d="M 27.796875 43.335938 C 27.796875 43.597656 27.585938 43.804688 27.324219 43.804688 C 27.0625 43.804688 26.851562 43.597656 26.851562 43.335938 C 26.851562 43.078125 27.0625 42.867188 27.324219 42.867188 C 27.585938 42.867188 27.796875 43.078125 27.796875 43.335938 Z M 27.796875 43.335938 "/>
<path style=" stroke:none;fill-rule:nonzero;fill:rgb(100%,100%,100%);fill-opacity:1;" d="M 36.722656 43.335938 C 36.722656 43.597656 36.511719 43.804688 36.253906 43.804688 C 35.992188 43.804688 35.78125 43.597656 35.78125 43.335938 C 35.78125 43.078125 35.992188 42.867188 36.253906 42.867188 C 36.511719 42.867188 36.722656 43.078125 36.722656 43.335938 Z M 36.722656 43.335938 "/>
</g>
</svg>
