<svg id="Layer_1" data-name="Layer 1" xmlns="http://www.w3.org/2000/svg" viewBox="0 0 48.57 125.44"><defs><style>.cls-1{fill:#101820;}.cls-2{fill:#1970b0;}.cls-3{fill:#e84130;}.cls-4{fill:#fff;}</style></defs><title>Untitled-1</title><path class="cls-1" d="M82.58,49.45a3,3,0,0,1-2.31-4.91c.24-.3,5.31-6.77,1.75-17.16C78.14,16,66.73,6.15,66.62,6.06a3,3,0,0,1,3.9-4.56c.52.44,12.76,11,17.18,23.94C92.4,39.17,85.19,48,84.88,48.37A3,3,0,0,1,82.58,49.45Z" transform="translate(-40.71 -0.78)"/><path class="cls-1" d="M47.42,49.45a3,3,0,0,1-2.3-1.08c-.31-.37-7.52-9.2-2.82-22.93C46.72,12.53,59,1.94,59.48,1.5a3,3,0,0,1,3.9,4.56c-.11.09-11.52,10-15.4,21.32C44.36,38,49.66,44.46,49.72,44.52a3,3,0,0,1-.38,4.23A3,3,0,0,1,47.42,49.45Z" transform="translate(-40.71 -0.78)"/><path class="cls-1" d="M61,108.47A3,3,0,0,1,59.26,103S63.53,100,74,92.37c2.76-2,2.79-3.73,2.8-4.3.05-3.54-4.18-7.61-5.66-8.76a3,3,0,1,1,3.67-4.74c.83.64,8.1,6.46,8,13.59,0,2.42-1,6-5.27,9.07-10.5,7.61-14.77,10.68-14.77,10.68A3,3,0,0,1,61,108.47Z" transform="translate(-40.71 -0.78)"/><path class="cls-1" d="M54.36,126.22a2.78,2.78,0,0,0,2.78-2.78V80.09a2.79,2.79,0,0,0-5.57,0v43.35A2.78,2.78,0,0,0,54.36,126.22Z" transform="translate(-40.71 -0.78)"/><path class="cls-2" d="M51,24.84H79a4.7,4.7,0,0,1,4.7,4.7V60.69A17.11,17.11,0,0,1,66.56,77.79H63.44A17.11,17.11,0,0,1,46.33,60.69V29.54a4.7,4.7,0,0,1,4.7-4.7Z" transform="translate(89.29 101.85) rotate(-180)"/><path class="cls-1" d="M45.48,72.66V43.51a19.52,19.52,0,1,1,39,0V72.66a6,6,0,0,1-6,6H51.47A6,6,0,0,1,45.48,72.66Zm1.71-29.15V72.66a4.28,4.28,0,0,0,4.28,4.28H78.53a4.28,4.28,0,0,0,4.28-4.28V43.51a17.81,17.81,0,1,0-35.62,0Z" transform="translate(-40.71 -0.78)"/><rect class="cls-3" x="43.12" y="69.52" width="43.76" height="10.39" rx="4.76" transform="translate(89.29 148.65) rotate(180)"/><path class="cls-1" d="M42.26,76.73v-4a4,4,0,0,1,4-4H83.7a4,4,0,0,1,4,4v4a4,4,0,0,1-4,4H46.3A4,4,0,0,1,42.26,76.73Zm4-6.35A2.33,2.33,0,0,0,44,72.7v4a2.33,2.33,0,0,0,2.33,2.32H83.7A2.33,2.33,0,0,0,86,76.73v-4a2.33,2.33,0,0,0-2.33-2.32Z" transform="translate(-40.71 -0.78)"/><rect class="cls-4" x="50.47" y="46.89" width="3.2" height="11.22" rx="1.47" transform="translate(64.51 103.14) rotate(178.81)"/><circle class="cls-4" cx="11.53" cy="60.24" r="1.33"/><circle class="cls-3" cx="35.06" cy="44.17" r="2.35"/><circle class="cls-3" cx="17.95" cy="44.17" r="2.35"/><path class="cls-1" d="M66.58,48.16h1.71a.86.86,0,0,0,0-1.71H66.58a.86.86,0,1,0,0,1.71Z" transform="translate(-40.71 -0.78)"/><path class="cls-1" d="M63.15,36.61h1.72a.86.86,0,0,0,.85-.86.85.85,0,0,0-.85-.85H63.15a.85.85,0,0,0-.85.85A.86.86,0,0,0,63.15,36.61Z" transform="translate(-40.71 -0.78)"/><path class="cls-1" d="M71.28,36.61H73a.86.86,0,0,0,.85-.86A.85.85,0,0,0,73,34.9H71.28a.85.85,0,0,0-.85.85A.86.86,0,0,0,71.28,36.61Z" transform="translate(-40.71 -0.78)"/><circle class="cls-4" cx="30.57" cy="41.39" r="3.85"/><path class="cls-1" d="M71.28,46.66a4.49,4.49,0,1,1,4.5-4.49A4.5,4.5,0,0,1,71.28,46.66Zm0-7.7a3.21,3.21,0,1,0,3.21,3.21A3.21,3.21,0,0,0,71.28,39Z" transform="translate(-40.71 -0.78)"/><ellipse class="cls-1" cx="31.32" cy="41.39" rx="2.67" ry="3.42"/><circle class="cls-4" cx="22.87" cy="41.39" r="3.85"/><path class="cls-1" d="M63.58,46.66a4.49,4.49,0,1,1,4.49-4.49A4.49,4.49,0,0,1,63.58,46.66Zm0-7.7a3.21,3.21,0,1,0,3.21,3.21A3.21,3.21,0,0,0,63.58,39Z" transform="translate(-40.71 -0.78)"/><ellipse class="cls-1" cx="23.62" cy="41.39" rx="2.67" ry="3.42"/><circle class="cls-4" cx="24.58" cy="39.68" r="0.43"/><circle class="cls-4" cx="32.71" cy="39.68" r="0.43"/></svg>