<?xml version="1.0" standalone="no"?>
<!DOCTYPE svg PUBLIC "-//W3C//DTD SVG 20010904//EN"
 "http://www.w3.org/TR/2001/REC-SVG-20010904/DTD/svg10.dtd">
<svg version="1.0" xmlns="http://www.w3.org/2000/svg"
 width="130.000000pt" height="130.000000pt" viewBox="0 0 130.000000 130.000000"
 preserveAspectRatio="xMidYMid meet">

<g transform="translate(0.000000,100.000000) scale(0.100000,-0.100000)"
fill="#000000" stroke="none">
<path d="M280 878 c-63 -43 -94 -136 -71 -218 5 -19 0 -35 -25 -67 -44 -57
-52 -116 -27 -174 26 -57 63 -100 106 -124 30 -16 34 -23 33 -56 -1 -48 27
-79 97 -109 64 -28 148 -36 206 -20 53 14 101 59 101 93 0 18 10 32 33 46 43
27 58 53 64 120 4 34 15 70 29 91 31 46 39 90 25 133 -12 34 -47 67 -73 67 -7
0 -22 21 -32 46 -20 49 -63 84 -104 84 -13 0 -35 9 -49 20 -27 21 -87 27 -112
11 -10 -6 -21 0 -39 20 -51 61 -108 73 -162 37z m98 -54 c37 -26 67 -105 56
-150 -5 -20 -7 -20 -38 -5 -27 13 -33 21 -32 46 1 24 -3 30 -19 30 -12 0 -25
-11 -34 -30 -26 -55 -51 -55 -51 0 0 43 14 79 40 105 24 24 48 25 78 4z m197
-91 c34 -72 -14 -188 -74 -181 -23 3 -26 7 -23 38 2 19 5 64 8 100 6 69 21 92
54 83 10 -3 26 -21 35 -40z m102 -25 c27 -30 35 -66 23 -109 -13 -46 -45 -79
-75 -79 -30 0 -31 8 -4 60 14 27 22 61 23 96 0 30 3 54 6 54 4 0 16 -10 27
-22z m-309 -90 c18 -18 15 -30 -23 -71 -19 -21 -35 -47 -35 -59 0 -18 5 -20
43 -15 53 5 97 -14 119 -54 12 -19 24 -29 35 -27 24 4 28 41 8 71 -15 23 -15
25 6 30 14 4 31 -1 47 -14 14 -10 31 -19 39 -19 8 0 26 -13 39 -30 15 -17 39
-32 60 -36 27 -5 34 -11 34 -30 0 -13 -13 -38 -28 -56 -22 -24 -37 -31 -63
-31 -45 0 -62 -13 -48 -38 5 -10 16 -19 24 -19 31 0 11 -34 -28 -49 -64 -25
-177 -7 -222 35 -36 33 -32 48 9 41 64 -10 77 45 14 58 -73 16 -139 56 -169
103 -16 25 -29 57 -29 70 0 40 31 93 73 123 42 31 75 37 95 17z m420 -30 c35
-35 -17 -137 -70 -138 -29 0 -30 19 -4 53 14 19 31 48 37 65 12 35 19 38 37
20z"/>
</g>
</svg>
