<?xml version="1.0" encoding="UTF-8"?>
<svg xmlns="http://www.w3.org/2000/svg" xmlns:xlink="http://www.w3.org/1999/xlink" width="100pt" height="100pt" viewBox="0 0 100 100" version="1.1">
<g id="surface1">
<path style=" stroke:none;fill-rule:nonzero;fill:rgb(0%,0%,0%);fill-opacity:1;" d="M 32.03125 10.175781 C 31.542969 10.273438 30.410156 10.703125 29.511719 11.152344 C 26.699219 12.539062 23.242188 16.367188 21.679688 19.804688 C 20.605469 22.1875 20.273438 23.671875 20.175781 26.855469 C 20.058594 30.039062 20.273438 31.71875 21.210938 35.058594 L 21.699219 36.816406 L 20.410156 38.183594 C 16.367188 42.441406 14.511719 46.445312 14.316406 51.367188 C 14.21875 53.4375 14.277344 54.082031 14.628906 55.46875 C 15.46875 58.867188 18.320312 63.613281 21.386719 66.71875 C 23.203125 68.554688 25.214844 69.960938 28.144531 71.425781 L 30.234375 72.460938 L 29.863281 73.4375 C 29.335938 74.824219 29.355469 77.539062 29.902344 79.140625 C 30.957031 82.285156 33.691406 84.785156 38.242188 86.816406 C 44.6875 89.667969 51.386719 90.605469 57.578125 89.53125 C 64.941406 88.261719 68.496094 85.585938 69.902344 80.234375 C 70.117188 79.453125 70.332031 78.398438 70.410156 77.871094 C 70.46875 77.363281 70.605469 76.953125 70.683594 76.953125 C 70.78125 76.953125 71.777344 76.328125 72.910156 75.585938 C 77.578125 72.460938 79.550781 69.042969 79.824219 63.574219 C 79.882812 62.382812 79.824219 60.605469 79.707031 59.609375 L 79.472656 57.792969 L 81.09375 56.054688 C 82.929688 54.121094 84.335938 51.894531 85.117188 49.785156 C 85.585938 48.457031 85.644531 48.085938 85.644531 45.507812 C 85.644531 42.304688 85.449219 41.210938 84.433594 39.101562 C 83.125 36.308594 80.214844 34.160156 77.382812 33.867188 C 76.269531 33.75 76.152344 33.691406 76.054688 33.222656 C 75.332031 30.058594 74.453125 28.046875 72.832031 25.917969 C 70.175781 22.421875 67.167969 20.957031 63.066406 21.132812 L 60.996094 21.230469 L 60.46875 20.390625 C 59.414062 18.730469 57.5 17.480469 55.253906 16.992188 C 54.609375 16.855469 53.320312 16.777344 52.089844 16.835938 C 50.078125 16.894531 49.980469 16.933594 48.203125 17.832031 C 47.1875 18.339844 46.347656 18.652344 46.328125 18.554688 C 46.152344 18.066406 43.90625 15.253906 42.949219 14.335938 C 39.140625 10.722656 35.800781 9.453125 32.03125 10.175781 Z M 36.132812 16.425781 C 37.089844 16.875 37.832031 17.460938 39.160156 18.808594 C 41.25 20.917969 42.128906 22.460938 42.910156 25.3125 C 43.359375 26.972656 43.4375 27.636719 43.4375 29.980469 C 43.457031 31.992188 43.359375 33.125 43.085938 34.257812 L 42.734375 35.800781 L 42.226562 35.136719 C 40.917969 33.4375 39.101562 32.246094 37.089844 31.777344 C 36.5625 31.660156 36.132812 31.445312 36.132812 31.328125 C 36.132812 31.191406 36.40625 30.507812 36.71875 29.785156 C 37.402344 28.261719 37.460938 27.304688 36.914062 26.40625 C 35.917969 24.785156 33.75 24.511719 32.402344 25.839844 C 31.894531 26.367188 30.078125 30.546875 30.078125 31.230469 C 30.078125 31.445312 29.960938 31.679688 29.84375 31.777344 C 29.21875 32.167969 26.738281 33.144531 26.679688 33.027344 C 26.621094 32.96875 26.464844 32.167969 26.289062 31.269531 C 25.898438 29.238281 25.898438 26.503906 26.269531 24.707031 C 26.953125 21.425781 29.589844 17.65625 32.070312 16.425781 C 33.613281 15.644531 34.492188 15.644531 36.132812 16.425781 Z M 54.785156 22.96875 C 55.605469 23.359375 57.109375 25.449219 57.890625 27.285156 C 59.765625 31.777344 58.476562 38.808594 55.058594 42.636719 C 53.75 44.101562 52.441406 44.765625 50.625 44.882812 C 48.242188 45.039062 47.480469 44.375 47.050781 41.875 C 46.835938 40.625 46.835938 40.46875 47.226562 39.707031 C 48.027344 38.144531 48.476562 36.816406 48.847656 34.765625 C 49.335938 32.226562 49.375 28.125 48.945312 25.976562 L 48.652344 24.511719 L 49.179688 24.0625 C 49.472656 23.808594 50.234375 23.339844 50.878906 23.027344 C 51.855469 22.539062 52.226562 22.460938 53.066406 22.539062 C 53.613281 22.578125 54.394531 22.773438 54.785156 22.96875 Z M 65.957031 27.480469 C 67.8125 28.339844 69.53125 30.800781 70.234375 33.59375 C 70.625 35.136719 70.527344 38.554688 70.039062 40.332031 C 69.0625 43.828125 66.71875 46.953125 64.394531 47.8125 C 63.691406 48.085938 62.8125 48.242188 62.089844 48.242188 C 60.996094 48.242188 60.839844 48.183594 60.234375 47.578125 C 59.863281 47.207031 59.570312 46.777344 59.570312 46.601562 C 59.570312 46.425781 59.960938 45.761719 60.429688 45.136719 C 61.425781 43.75 62.890625 40.839844 63.457031 39.082031 C 64.511719 35.800781 64.84375 30.996094 64.179688 28.261719 C 64.003906 27.519531 63.867188 26.894531 63.867188 26.835938 C 63.867188 26.660156 64.960938 26.992188 65.957031 27.480469 Z M 36.367188 37.636719 C 37.460938 38.125 37.890625 38.847656 37.890625 40.175781 C 37.871094 41.835938 37.34375 42.617188 33.90625 46.035156 C 30.546875 49.375 30.273438 49.804688 30.585938 51.113281 C 31.132812 53.339844 33.398438 53.964844 36.914062 52.832031 C 39.550781 51.972656 41.425781 52.382812 44.277344 54.414062 C 45.957031 55.625 46.972656 56.933594 47.460938 58.59375 C 48.046875 60.566406 49.257812 61.386719 51.035156 61.054688 C 51.816406 60.898438 52.871094 59.882812 53.125 59.003906 C 53.339844 58.203125 53.066406 56.542969 52.460938 55.195312 C 51.914062 53.984375 50.390625 51.953125 49.550781 51.269531 L 48.925781 50.78125 L 50.097656 50.78125 C 50.742188 50.78125 51.894531 50.644531 52.636719 50.46875 C 53.398438 50.292969 54.179688 50.117188 54.394531 50.078125 C 54.6875 50 54.921875 50.214844 55.371094 50.898438 C 56.09375 51.992188 57.753906 53.222656 59.0625 53.632812 C 59.609375 53.789062 60.722656 53.964844 61.542969 54.042969 L 63.046875 54.160156 L 63.28125 54.960938 C 63.652344 56.230469 64.355469 57.285156 65.527344 58.359375 C 67.421875 60.097656 69.707031 60.859375 72.558594 60.703125 L 74.082031 60.625 L 73.964844 62.695312 C 73.730469 67.226562 72.1875 69.648438 68.183594 71.621094 C 66.582031 72.441406 64.707031 72.695312 63.671875 72.265625 C 62.402344 71.738281 60.683594 72.148438 60.058594 73.125 C 58.691406 75.195312 59.84375 77.304688 62.832031 78.183594 C 64.199219 78.574219 64.277344 78.632812 64.160156 79.101562 C 63.964844 79.882812 62.734375 81.5625 61.914062 82.128906 C 59.121094 84.0625 51.640625 84.746094 46.464844 83.535156 C 42.421875 82.578125 38.515625 80.820312 36.855469 79.199219 C 35.488281 77.871094 34.921875 76.230469 35.449219 75.097656 C 35.644531 74.726562 35.820312 74.414062 35.878906 74.414062 C 35.917969 74.414062 37.011719 74.667969 38.28125 75 C 40.898438 75.664062 41.582031 75.703125 42.363281 75.292969 C 43.398438 74.765625 43.945312 73.90625 43.945312 72.8125 C 43.945312 70.976562 43.105469 70.195312 40.527344 69.628906 C 35.800781 68.59375 30.097656 66.25 27.246094 64.121094 C 23.90625 61.640625 20.9375 57.246094 20.175781 53.632812 C 19.296875 49.414062 21.855469 44.160156 26.621094 40.332031 C 29.667969 37.890625 31.582031 37.070312 33.984375 37.167969 C 34.921875 37.207031 35.78125 37.382812 36.367188 37.636719 Z M 77.949219 40.078125 C 79.375 41.035156 80.332031 44.257812 79.902344 46.621094 C 79.492188 48.867188 77.871094 51.425781 75.683594 53.320312 C 74.277344 54.53125 73.339844 54.941406 71.972656 54.941406 C 70.644531 54.941406 69.785156 54.589844 69.140625 53.769531 C 68.476562 52.929688 68.730469 52.34375 70.410156 50.761719 C 72.832031 48.457031 74.492188 45.585938 75.507812 41.953125 C 75.78125 40.957031 76.035156 40.019531 76.074219 39.882812 C 76.210938 39.511719 77.226562 39.609375 77.949219 40.078125 Z M 77.949219 40.078125 "/>
</g>
</svg>
