<?xml version="1.0" encoding="UTF-8"?>
<svg xmlns="http://www.w3.org/2000/svg" xmlns:xlink="http://www.w3.org/1999/xlink" width="100px" height="115px" viewBox="0 0 100 114" version="1.1">
<g id="surface1">
<path style=" stroke:none;fill-rule:nonzero;fill:rgb(90.980392%,25.490196%,18.823529%);fill-opacity:1;" d="M 48.539062 1.433594 L 50.023438 1.433594 C 51.398438 1.433594 52.519531 2.546875 52.519531 3.921875 L 52.519531 29.777344 C 52.519531 31.148438 51.398438 32.265625 50.023438 32.265625 L 48.539062 32.265625 C 47.160156 32.265625 46.042969 31.148438 46.042969 29.777344 L 46.042969 3.921875 C 46.042969 2.546875 47.160156 1.433594 48.539062 1.433594 Z M 48.539062 1.433594 "/>
<path style=" stroke:none;fill-rule:nonzero;fill:rgb(6.27451%,9.411765%,12.54902%);fill-opacity:1;" d="M 50.023438 33.699219 L 48.539062 33.699219 C 46.367188 33.695312 44.609375 31.941406 44.605469 29.777344 L 44.605469 3.921875 C 44.609375 1.757812 46.367188 0.00390625 48.539062 0 L 50.023438 0 C 52.191406 0.00390625 53.953125 1.757812 53.957031 3.921875 L 53.957031 29.777344 C 53.953125 31.941406 52.191406 33.695312 50.023438 33.699219 Z M 48.539062 2.867188 C 47.957031 2.867188 47.480469 3.339844 47.480469 3.921875 L 47.480469 29.777344 C 47.480469 30.359375 47.957031 30.832031 48.539062 30.832031 L 50.023438 30.832031 C 50.605469 30.832031 51.078125 30.359375 51.078125 29.777344 L 51.078125 3.921875 C 51.078125 3.339844 50.605469 2.867188 50.023438 2.867188 Z M 48.539062 2.867188 "/>
<path style=" stroke:none;fill-rule:nonzero;fill:rgb(9.803922%,43.921569%,69.019608%);fill-opacity:1;" d="M 64.75 16.8125 L 64.75 18.320312 C 64.75 20.082031 63.316406 21.507812 61.546875 21.507812 L 37.015625 21.507812 C 35.246094 21.507812 33.8125 20.082031 33.8125 18.320312 L 33.8125 16.8125 C 33.8125 15.050781 35.246094 13.621094 37.015625 13.621094 L 61.546875 13.621094 C 63.316406 13.621094 64.75 15.050781 64.75 16.8125 Z M 64.75 16.8125 "/>
<path style=" stroke:none;fill-rule:nonzero;fill:rgb(6.27451%,9.411765%,12.54902%);fill-opacity:1;" d="M 61.546875 22.945312 L 37.015625 22.945312 C 34.453125 22.945312 32.375 20.871094 32.375 18.320312 L 32.375 16.8125 C 32.375 14.257812 34.453125 12.1875 37.015625 12.1875 L 61.546875 12.1875 C 64.109375 12.1875 66.1875 14.257812 66.1875 16.8125 L 66.1875 18.320312 C 66.1875 20.871094 64.109375 22.945312 61.546875 22.945312 Z M 37.015625 15.054688 C 36.039062 15.054688 35.25 15.84375 35.25 16.8125 L 35.25 18.320312 C 35.25 19.289062 36.039062 20.074219 37.015625 20.074219 L 61.546875 20.074219 C 62.519531 20.074219 63.308594 19.289062 63.308594 18.320312 L 63.308594 16.8125 C 63.308594 15.84375 62.519531 15.054688 61.546875 15.054688 Z M 37.015625 15.054688 "/>
<path style=" stroke:none;fill-rule:nonzero;fill:rgb(6.27451%,9.411765%,12.54902%);fill-opacity:1;" d="M 34.171875 114 C 31.589844 114 29.496094 111.914062 29.496094 109.339844 L 29.496094 77.074219 C 29.496094 74.5 31.589844 72.414062 34.171875 72.414062 C 36.753906 72.414062 38.847656 74.5 38.847656 77.074219 L 38.847656 109.339844 C 38.847656 111.914062 36.753906 114 34.171875 114 Z M 34.171875 114 "/>
<path style=" stroke:none;fill-rule:nonzero;fill:rgb(6.27451%,9.411765%,12.54902%);fill-opacity:1;" d="M 4.8125 70.179688 C 2.859375 70.179688 1.109375 68.96875 0.429688 67.144531 C -0.253906 65.316406 0.277344 63.261719 1.753906 61.988281 L 11.554688 53.558594 C 13.507812 51.875 16.460938 52.089844 18.152344 54.039062 C 19.839844 55.988281 19.625 58.929688 17.667969 60.613281 L 7.871094 69.046875 C 7.019531 69.777344 5.9375 70.179688 4.8125 70.179688 Z M 4.8125 70.179688 "/>
<path style=" stroke:none;fill-rule:nonzero;fill:rgb(6.27451%,9.411765%,12.54902%);fill-opacity:1;" d="M 95.1875 70.179688 C 94.0625 70.179688 92.980469 69.777344 92.128906 69.046875 L 82.332031 60.613281 C 80.375 58.929688 80.160156 55.988281 81.847656 54.039062 C 83.539062 52.089844 86.492188 51.875 88.445312 53.558594 L 98.246094 61.988281 C 99.722656 63.261719 100.253906 65.316406 99.570312 67.144531 C 98.890625 68.96875 97.140625 70.179688 95.1875 70.179688 Z M 95.1875 70.179688 "/>
<path style=" stroke:none;fill-rule:nonzero;fill:rgb(6.27451%,9.411765%,12.54902%);fill-opacity:1;" d="M 64.386719 114 C 61.804688 114 59.710938 111.914062 59.710938 109.339844 L 59.710938 77.074219 C 59.710938 74.5 61.804688 72.414062 64.386719 72.414062 C 66.972656 72.414062 69.066406 74.5 69.066406 77.074219 L 69.066406 109.339844 C 69.066406 111.914062 66.972656 114 64.386719 114 Z M 64.386719 114 "/>
<path style=" stroke:none;fill-rule:nonzero;fill:rgb(9.803922%,43.921569%,69.019608%);fill-opacity:1;" d="M 22.300781 20.792969 L 76.976562 20.792969 C 81.746094 20.792969 85.613281 24.644531 85.613281 29.394531 L 85.613281 86.039062 C 85.613281 90.789062 81.746094 94.640625 76.976562 94.640625 L 22.300781 94.640625 C 17.535156 94.640625 13.667969 90.789062 13.667969 86.039062 L 13.667969 29.394531 C 13.667969 24.644531 17.535156 20.792969 22.300781 20.792969 Z M 22.300781 20.792969 "/>
<path style=" stroke:none;fill-rule:nonzero;fill:rgb(6.27451%,9.411765%,12.54902%);fill-opacity:1;" d="M 76.976562 96.074219 L 22.300781 96.074219 C 16.738281 96.074219 12.230469 91.582031 12.230469 86.039062 L 12.230469 29.394531 C 12.230469 23.851562 16.738281 19.359375 22.300781 19.359375 L 76.976562 19.359375 C 82.539062 19.359375 87.050781 23.851562 87.050781 29.394531 L 87.050781 86.039062 C 87.050781 91.582031 82.539062 96.074219 76.976562 96.074219 Z M 22.300781 22.226562 C 18.328125 22.226562 15.109375 25.4375 15.109375 29.394531 L 15.109375 86.039062 C 15.109375 89.996094 18.328125 93.207031 22.300781 93.207031 L 76.976562 93.207031 C 80.953125 93.207031 84.171875 89.996094 84.171875 86.039062 L 84.171875 29.394531 C 84.171875 25.4375 80.953125 22.226562 76.976562 22.226562 Z M 22.300781 22.226562 "/>
<path style=" stroke:none;fill-rule:nonzero;fill:rgb(90.980392%,25.490196%,18.823529%);fill-opacity:1;" d="M 76.976562 20.792969 L 22.300781 20.792969 C 17.535156 20.792969 13.667969 24.644531 13.667969 29.394531 L 13.667969 36.328125 C 14.386719 36.566406 25.179688 36.328125 25.179688 36.328125 L 25.179688 31.546875 L 74.101562 31.546875 L 74.101562 36.566406 L 85.613281 36.566406 L 85.613281 29.394531 C 85.613281 24.644531 81.746094 20.792969 76.976562 20.792969 Z M 76.976562 20.792969 "/>
<path style=" stroke:none;fill-rule:nonzero;fill:rgb(6.27451%,9.411765%,12.54902%);fill-opacity:1;" d="M 85.613281 38 L 74.101562 38 C 73.304688 38 72.660156 37.359375 72.660156 36.566406 L 72.660156 32.980469 L 26.617188 32.980469 L 26.617188 36.328125 C 26.617188 37.121094 25.972656 37.761719 25.179688 37.761719 C 14.136719 38.007812 13.4375 37.761719 13.179688 37.683594 C 12.59375 37.492188 12.195312 36.945312 12.195312 36.328125 L 12.195312 29.394531 C 12.195312 23.851562 16.703125 19.359375 22.265625 19.359375 L 76.941406 19.359375 C 82.503906 19.359375 87.015625 23.851562 87.015625 29.394531 L 87.015625 36.566406 C 87.015625 37.34375 86.390625 37.980469 85.613281 38 Z M 75.539062 35.132812 L 84.171875 35.132812 L 84.171875 29.394531 C 84.171875 25.4375 80.953125 22.226562 76.976562 22.226562 L 22.300781 22.226562 C 18.328125 22.226562 15.109375 25.4375 15.109375 29.394531 L 15.109375 34.988281 C 16.871094 34.988281 20.332031 34.988281 23.742188 34.925781 L 23.742188 31.546875 C 23.742188 30.753906 24.386719 30.113281 25.179688 30.113281 L 74.101562 30.113281 C 74.894531 30.113281 75.539062 30.753906 75.539062 31.546875 Z M 75.539062 35.132812 "/>
<path style=" stroke:none;fill-rule:nonzero;fill:rgb(90.980392%,25.490196%,18.823529%);fill-opacity:1;" d="M 64.75 57.71875 C 64.75 59.894531 62.976562 61.660156 60.792969 61.660156 C 58.605469 61.660156 56.835938 59.894531 56.835938 57.71875 C 56.835938 55.539062 58.605469 53.773438 60.792969 53.773438 C 62.976562 53.773438 64.75 55.539062 64.75 57.71875 Z M 64.75 57.71875 "/>
<path style=" stroke:none;fill-rule:nonzero;fill:rgb(90.980392%,25.490196%,18.823529%);fill-opacity:1;" d="M 33.8125 57.71875 C 33.8125 59.894531 32.042969 61.660156 29.855469 61.660156 C 27.671875 61.660156 25.898438 59.894531 25.898438 57.71875 C 25.898438 55.539062 27.671875 53.773438 29.855469 53.773438 C 32.042969 53.773438 33.8125 55.539062 33.8125 57.71875 Z M 33.8125 57.71875 "/>
<path style=" stroke:none;fill-rule:nonzero;fill:rgb(100%,100%,100%);fill-opacity:1;" d="M 43.164062 50.90625 C 43.164062 54.46875 40.265625 57.359375 36.691406 57.359375 C 33.113281 57.359375 30.214844 54.46875 30.214844 50.90625 C 30.214844 47.34375 33.113281 44.453125 36.691406 44.453125 C 40.265625 44.453125 43.164062 47.34375 43.164062 50.90625 Z M 43.164062 50.90625 "/>
<path style=" stroke:none;fill-rule:nonzero;fill:rgb(6.27451%,9.411765%,12.54902%);fill-opacity:1;" d="M 36.691406 58.433594 C 32.519531 58.433594 29.136719 55.0625 29.136719 50.90625 C 29.136719 46.746094 32.519531 43.378906 36.691406 43.378906 C 40.863281 43.378906 44.246094 46.746094 44.246094 50.90625 C 44.242188 55.0625 40.859375 58.429688 36.691406 58.433594 Z M 36.691406 45.527344 C 33.710938 45.527344 31.296875 47.9375 31.296875 50.90625 C 31.296875 53.875 33.710938 56.28125 36.691406 56.28125 C 39.671875 56.28125 42.085938 53.875 42.085938 50.90625 C 42.082031 47.9375 39.667969 45.53125 36.691406 45.527344 Z M 36.691406 45.527344 "/>
<path style=" stroke:none;fill-rule:nonzero;fill:rgb(100%,100%,100%);fill-opacity:1;" d="M 60.433594 50.90625 C 60.433594 54.46875 57.53125 57.359375 53.957031 57.359375 C 50.382812 57.359375 47.480469 54.46875 47.480469 50.90625 C 47.480469 47.34375 50.382812 44.453125 53.957031 44.453125 C 57.53125 44.453125 60.433594 47.34375 60.433594 50.90625 Z M 60.433594 50.90625 "/>
<path style=" stroke:none;fill-rule:nonzero;fill:rgb(6.27451%,9.411765%,12.54902%);fill-opacity:1;" d="M 53.957031 58.433594 C 49.785156 58.433594 46.402344 55.0625 46.402344 50.90625 C 46.402344 46.746094 49.785156 43.378906 53.957031 43.378906 C 58.128906 43.378906 61.511719 46.746094 61.511719 50.90625 C 61.507812 55.0625 58.128906 58.429688 53.957031 58.433594 Z M 53.957031 45.527344 C 50.976562 45.527344 48.5625 47.9375 48.5625 50.90625 C 48.5625 53.875 50.976562 56.28125 53.957031 56.28125 C 56.9375 56.28125 59.351562 53.875 59.351562 50.90625 C 59.347656 47.9375 56.933594 45.53125 53.957031 45.527344 Z M 53.957031 45.527344 "/>
<path style=" stroke:none;fill-rule:nonzero;fill:rgb(6.27451%,9.411765%,12.54902%);fill-opacity:1;" d="M 57.554688 50.90625 C 57.554688 48.925781 55.871094 47.320312 53.792969 47.320312 C 51.714844 47.320312 50.027344 48.925781 50.027344 50.90625 C 50.027344 52.886719 51.714844 54.492188 53.792969 54.492188 C 55.871094 54.492188 57.554688 52.886719 57.554688 50.90625 Z M 57.554688 50.90625 "/>
<path style=" stroke:none;fill-rule:nonzero;fill:rgb(6.27451%,9.411765%,12.54902%);fill-opacity:1;" d="M 40.289062 50.90625 C 40.289062 48.925781 38.601562 47.320312 36.523438 47.320312 C 34.445312 47.320312 32.761719 48.925781 32.761719 50.90625 C 32.761719 52.886719 34.445312 54.492188 36.523438 54.492188 C 38.601562 54.492188 40.289062 52.886719 40.289062 50.90625 Z M 40.289062 50.90625 "/>
<path style=" stroke:none;fill-rule:nonzero;fill:rgb(6.27451%,9.411765%,12.54902%);fill-opacity:1;" d="M 45.324219 60.945312 L 42.445312 60.945312 C 41.652344 60.945312 41.007812 60.300781 41.007812 59.507812 C 41.007812 58.71875 41.652344 58.074219 42.445312 58.074219 L 45.324219 58.074219 C 46.117188 58.074219 46.761719 58.71875 46.761719 59.507812 C 46.761719 60.300781 46.117188 60.945312 45.324219 60.945312 Z M 45.324219 60.945312 "/>
<path style=" stroke:none;fill-rule:nonzero;fill:rgb(6.27451%,9.411765%,12.54902%);fill-opacity:1;" d="M 37.410156 42.300781 L 34.53125 42.300781 C 33.738281 42.300781 33.09375 41.660156 33.09375 40.867188 C 33.09375 40.074219 33.738281 39.433594 34.53125 39.433594 L 37.410156 39.433594 C 38.203125 39.433594 38.847656 40.074219 38.847656 40.867188 C 38.847656 41.660156 38.203125 42.300781 37.410156 42.300781 Z M 37.410156 42.300781 "/>
<path style=" stroke:none;fill-rule:nonzero;fill:rgb(6.27451%,9.411765%,12.54902%);fill-opacity:1;" d="M 53.957031 42.300781 L 51.078125 42.300781 C 50.285156 42.300781 49.640625 41.660156 49.640625 40.867188 C 49.640625 40.074219 50.285156 39.433594 51.078125 39.433594 L 53.957031 39.433594 C 54.75 39.433594 55.394531 40.074219 55.394531 40.867188 C 55.394531 41.660156 54.75 42.300781 53.957031 42.300781 Z M 53.957031 42.300781 "/>
<path style=" stroke:none;fill-rule:nonzero;fill:rgb(89.803922%,25.490196%,20%);fill-opacity:1;" d="M 43.152344 50.546875 C 42.898438 47.179688 40.082031 44.574219 36.695312 44.574219 C 33.304688 44.574219 30.488281 47.179688 30.238281 50.546875 Z M 43.152344 50.546875 "/>
<path style=" stroke:none;fill-rule:nonzero;fill:rgb(6.27451%,9.411765%,12.54902%);fill-opacity:1;" d="M 43.152344 51.621094 L 30.238281 51.621094 C 29.941406 51.625 29.65625 51.5 29.453125 51.289062 C 29.25 51.074219 29.140625 50.785156 29.160156 50.488281 C 29.40625 46.523438 32.703125 43.433594 36.691406 43.433594 C 40.675781 43.433594 43.976562 46.523438 44.222656 50.488281 C 44.242188 50.785156 44.136719 51.070312 43.933594 51.285156 C 43.730469 51.5 43.449219 51.621094 43.152344 51.621094 Z M 31.496094 49.472656 L 41.863281 49.472656 C 41.21875 47.144531 39.09375 45.53125 36.667969 45.53125 C 34.246094 45.53125 32.121094 47.144531 31.476562 49.472656 Z M 31.496094 49.472656 "/>
<path style=" stroke:none;fill-rule:nonzero;fill:rgb(89.803922%,25.490196%,20%);fill-opacity:1;" d="M 60.417969 50.546875 C 60.417969 46.984375 57.519531 44.09375 53.941406 44.09375 C 50.367188 44.09375 47.46875 46.984375 47.46875 50.546875 Z M 60.417969 50.546875 "/>
<path style=" stroke:none;fill-rule:nonzero;fill:rgb(6.27451%,9.411765%,12.54902%);fill-opacity:1;" d="M 60.417969 51.621094 L 47.46875 51.621094 C 47.171875 51.625 46.886719 51.5 46.683594 51.289062 C 46.480469 51.074219 46.371094 50.785156 46.386719 50.488281 C 46.632812 46.523438 49.933594 43.433594 53.921875 43.433594 C 57.90625 43.433594 61.207031 46.523438 61.453125 50.488281 C 61.472656 50.785156 61.367188 51.070312 61.164062 51.285156 C 60.96875 51.492188 60.703125 51.613281 60.417969 51.621094 Z M 48.761719 49.472656 L 59.128906 49.472656 C 58.484375 47.144531 56.359375 45.53125 53.933594 45.53125 C 51.511719 45.53125 49.386719 47.144531 48.742188 49.472656 Z M 48.761719 49.472656 "/>
</g>
</svg>
