<?xml version="1.0" encoding="UTF-8"?>
<svg xmlns="http://www.w3.org/2000/svg" xmlns:xlink="http://www.w3.org/1999/xlink" width="59px" height="100px" viewBox="0 0 59 99" version="1.1">
<g id="surface1">
<path style=" stroke:none;fill-rule:nonzero;fill:rgb(6.27451%,9.411765%,12.54902%);fill-opacity:1;" d="M 22.078125 99 C 20.679688 99 19.542969 97.871094 19.542969 96.476562 L 19.542969 78.097656 C 19.542969 76.703125 20.679688 75.574219 22.078125 75.574219 C 23.480469 75.574219 24.617188 76.703125 24.617188 78.097656 L 24.617188 96.476562 C 24.617188 97.871094 23.480469 99 22.078125 99 Z M 22.078125 99 "/>
<path style=" stroke:none;fill-rule:nonzero;fill:rgb(6.27451%,9.411765%,12.54902%);fill-opacity:1;" d="M 2.605469 58.71875 C 1.480469 58.714844 0.492188 57.980469 0.175781 56.90625 C -0.140625 55.835938 0.289062 54.6875 1.234375 54.078125 L 16.769531 44.101562 C 17.945312 43.34375 19.519531 43.679688 20.28125 44.851562 C 21.039062 46.019531 20.703125 47.582031 19.527344 48.339844 L 3.96875 58.316406 C 3.5625 58.578125 3.089844 58.71875 2.605469 58.71875 Z M 2.605469 58.71875 "/>
<path style=" stroke:none;fill-rule:nonzero;fill:rgb(6.27451%,9.411765%,12.54902%);fill-opacity:1;" d="M 56.394531 58.71875 C 55.910156 58.722656 55.433594 58.589844 55.019531 58.332031 L 39.496094 48.339844 C 38.667969 47.882812 38.160156 47.007812 38.183594 46.066406 C 38.207031 45.128906 38.753906 44.277344 39.605469 43.863281 C 40.457031 43.449219 41.46875 43.542969 42.230469 44.101562 L 57.765625 54.078125 C 58.726562 54.679688 59.167969 55.84375 58.847656 56.925781 C 58.527344 58.011719 57.519531 58.75 56.382812 58.734375 Z M 56.394531 58.71875 "/>
<path style=" stroke:none;fill-rule:nonzero;fill:rgb(6.27451%,9.411765%,12.54902%);fill-opacity:1;" d="M 36.527344 99 C 35.125 99 33.988281 97.871094 33.988281 96.476562 L 33.988281 78.097656 C 33.988281 76.703125 35.125 75.574219 36.527344 75.574219 C 37.925781 75.574219 39.0625 76.703125 39.0625 78.097656 L 39.0625 96.476562 C 39.0625 97.871094 37.925781 99 36.527344 99 Z M 36.527344 99 "/>
<path style=" stroke:none;fill-rule:nonzero;fill:rgb(9.803922%,43.921569%,69.019608%);fill-opacity:1;" d="M 10.488281 11.382812 C 10.492188 13.574219 11.179688 15.710938 12.464844 17.492188 C 11.96875 18.996094 11.714844 20.566406 11.714844 22.148438 L 11.714844 59.742188 C 11.714844 61.324219 11.96875 62.894531 12.464844 64.398438 C 11.179688 66.179688 10.488281 68.316406 10.488281 70.507812 C 10.503906 76.355469 15.261719 81.09375 21.148438 81.117188 L 37.65625 81.117188 C 43.542969 81.097656 48.3125 76.363281 48.328125 70.511719 C 48.328125 68.320312 47.640625 66.183594 46.355469 64.398438 C 46.847656 62.894531 47.101562 61.324219 47.101562 59.742188 L 47.101562 22.160156 C 47.101562 20.578125 46.847656 19.007812 46.355469 17.503906 C 48.675781 14.273438 48.980469 10.027344 47.148438 6.5 C 45.316406 2.976562 41.652344 0.765625 37.65625 0.777344 L 21.148438 0.777344 C 15.265625 0.800781 10.503906 5.539062 10.488281 11.382812 Z M 10.488281 11.382812 "/>
<path style=" stroke:none;fill-rule:nonzero;fill:rgb(90.980392%,25.490196%,18.823529%);fill-opacity:1;" d="M 12.246094 60.488281 L 12.246094 57.195312 L 46.570312 57.195312 L 46.570312 60.488281 Z M 12.246094 60.488281 "/>
<path style=" stroke:none;fill-rule:nonzero;fill:rgb(90.980392%,25.490196%,18.823529%);fill-opacity:1;" d="M 12.246094 48.882812 L 12.246094 45.585938 L 46.570312 45.585938 L 46.570312 48.882812 Z M 12.246094 48.882812 "/>
<path style=" stroke:none;fill-rule:nonzero;fill:rgb(90.980392%,25.490196%,18.823529%);fill-opacity:1;" d="M 12.246094 37.273438 L 12.246094 33.980469 L 46.570312 33.980469 L 46.570312 37.273438 Z M 12.246094 37.273438 "/>
<path style=" stroke:none;fill-rule:nonzero;fill:rgb(6.27451%,9.411765%,12.54902%);fill-opacity:1;" d="M 37.65625 81.890625 L 21.148438 81.890625 C 14.832031 81.875 9.714844 76.789062 9.707031 70.511719 C 9.707031 68.292969 10.367188 66.121094 11.605469 64.273438 C 11.160156 62.804688 10.933594 61.277344 10.933594 59.742188 L 10.933594 22.160156 C 10.933594 20.621094 11.160156 19.09375 11.605469 17.621094 C 10.367188 15.773438 9.707031 13.601562 9.707031 11.382812 C 9.714844 5.105469 14.828125 0.015625 21.148438 0 L 37.65625 0 C 43.980469 0.0078125 49.101562 5.101562 49.109375 11.382812 C 49.109375 13.601562 48.449219 15.773438 47.210938 17.621094 C 47.65625 19.09375 47.882812 20.621094 47.882812 22.160156 L 47.882812 59.742188 C 47.882812 61.28125 47.65625 62.8125 47.210938 64.285156 C 48.453125 66.132812 49.113281 68.304688 49.109375 70.523438 C 49.09375 76.800781 43.972656 81.882812 37.65625 81.890625 Z M 21.148438 1.550781 C 15.691406 1.566406 11.273438 5.960938 11.269531 11.382812 C 11.269531 13.414062 11.910156 15.390625 13.101562 17.042969 L 13.324219 17.359375 L 13.207031 17.75 C 12.734375 19.179688 12.496094 20.675781 12.496094 22.179688 L 12.496094 59.742188 C 12.496094 61.25 12.734375 62.742188 13.207031 64.175781 L 13.324219 64.5625 L 13.101562 64.878906 C 11.90625 66.53125 11.265625 68.507812 11.269531 70.539062 C 11.289062 75.949219 15.703125 80.328125 21.148438 80.339844 L 37.65625 80.339844 C 43.117188 80.335938 47.542969 75.9375 47.546875 70.511719 C 47.546875 68.484375 46.910156 66.503906 45.722656 64.851562 L 45.492188 64.535156 L 45.613281 64.148438 C 46.078125 62.726562 46.316406 61.238281 46.320312 59.742188 L 46.320312 22.160156 C 46.320312 20.65625 46.082031 19.160156 45.613281 17.730469 L 45.492188 17.339844 L 45.722656 17.023438 C 47.851562 14.03125 48.125 10.105469 46.429688 6.847656 C 44.730469 3.59375 41.347656 1.550781 37.65625 1.550781 Z M 21.148438 1.550781 "/>
<path style=" stroke:none;fill-rule:nonzero;fill:rgb(90.980392%,25.490196%,18.823529%);fill-opacity:1;" d="M 23.421875 27.230469 C 23.421875 28.410156 22.460938 29.363281 21.277344 29.363281 C 20.089844 29.363281 19.128906 28.410156 19.128906 27.230469 C 19.128906 26.050781 20.089844 25.097656 21.277344 25.097656 C 22.460938 25.097656 23.421875 26.050781 23.421875 27.230469 Z M 23.421875 27.230469 "/>
<path style=" stroke:none;fill-rule:nonzero;fill:rgb(90.980392%,25.490196%,18.823529%);fill-opacity:1;" d="M 39.429688 27.230469 C 39.429688 28.410156 38.46875 29.363281 37.285156 29.363281 C 36.097656 29.363281 35.136719 28.410156 35.136719 27.230469 C 35.136719 26.050781 36.097656 25.097656 37.285156 25.097656 C 38.46875 25.097656 39.429688 26.050781 39.429688 27.230469 Z M 39.429688 27.230469 "/>
<path style=" stroke:none;fill-rule:nonzero;fill:rgb(100%,100%,100%);fill-opacity:1;" d="M 29.28125 22.867188 C 29.28125 20.347656 27.707031 18.308594 25.765625 18.308594 C 23.824219 18.308594 22.25 20.347656 22.25 22.867188 C 22.25 25.382812 23.824219 27.425781 25.765625 27.425781 C 27.707031 27.425781 29.28125 25.382812 29.28125 22.867188 Z M 29.28125 22.867188 "/>
<path style=" stroke:none;fill-rule:nonzero;fill:rgb(6.27451%,9.411765%,12.54902%);fill-opacity:1;" d="M 25.765625 28.003906 C 23.503906 28.003906 21.664062 25.679688 21.664062 22.867188 C 21.664062 20.054688 23.488281 17.726562 25.765625 17.726562 C 28.042969 17.726562 29.863281 20.03125 29.863281 22.867188 C 29.863281 25.703125 28.027344 28.003906 25.765625 28.003906 Z M 25.765625 18.890625 C 24.148438 18.890625 22.835938 20.671875 22.835938 22.867188 C 22.835938 25.058594 24.148438 26.84375 25.765625 26.84375 C 27.382812 26.84375 28.695312 25.058594 28.695312 22.867188 C 28.695312 20.671875 27.394531 18.890625 25.765625 18.890625 Z M 25.765625 18.890625 "/>
<path style=" stroke:none;fill-rule:nonzero;fill:rgb(100%,100%,100%);fill-opacity:1;" d="M 36.308594 22.867188 C 36.308594 20.347656 34.734375 18.308594 32.792969 18.308594 C 30.851562 18.308594 29.28125 20.347656 29.28125 22.867188 C 29.28125 25.382812 30.851562 27.425781 32.792969 27.425781 C 34.734375 27.425781 36.308594 25.382812 36.308594 22.867188 Z M 36.308594 22.867188 "/>
<path style=" stroke:none;fill-rule:nonzero;fill:rgb(6.27451%,9.411765%,12.54902%);fill-opacity:1;" d="M 32.792969 28.003906 C 30.53125 28.003906 28.695312 25.679688 28.695312 22.867188 C 28.695312 20.054688 30.515625 17.726562 32.792969 17.726562 C 35.070312 17.726562 36.894531 20.03125 36.894531 22.867188 C 36.894531 25.703125 35.054688 28.003906 32.792969 28.003906 Z M 32.792969 18.890625 C 31.175781 18.890625 29.863281 20.671875 29.863281 22.867188 C 29.863281 25.058594 31.175781 26.84375 32.792969 26.84375 C 34.410156 26.84375 35.722656 25.058594 35.722656 22.867188 C 35.722656 20.671875 34.421875 18.890625 32.792969 18.890625 Z M 32.792969 18.890625 "/>
<path style=" stroke:none;fill-rule:nonzero;fill:rgb(6.27451%,9.411765%,12.54902%);fill-opacity:1;" d="M 28.890625 22.574219 C 28.890625 20.539062 27.664062 18.890625 26.15625 18.890625 C 24.644531 18.890625 23.421875 20.539062 23.421875 22.574219 C 23.421875 24.609375 24.644531 26.261719 26.15625 26.261719 C 27.664062 26.261719 28.890625 24.609375 28.890625 22.574219 Z M 28.890625 22.574219 "/>
<path style=" stroke:none;fill-rule:nonzero;fill:rgb(6.27451%,9.411765%,12.54902%);fill-opacity:1;" d="M 35.917969 22.574219 C 35.917969 20.539062 34.691406 18.890625 33.183594 18.890625 C 31.675781 18.890625 30.449219 20.539062 30.449219 22.574219 C 30.449219 24.609375 31.675781 26.261719 33.183594 26.261719 C 34.691406 26.261719 35.917969 24.609375 35.917969 22.574219 Z M 35.917969 22.574219 "/>
<path style=" stroke:none;fill-rule:nonzero;fill:rgb(100%,100%,100%);fill-opacity:1;" d="M 33.992188 20.039062 C 33.992188 20.25 33.816406 20.425781 33.601562 20.425781 C 33.386719 20.425781 33.210938 20.25 33.210938 20.039062 C 33.210938 19.824219 33.386719 19.648438 33.601562 19.648438 C 33.816406 19.648438 33.992188 19.824219 33.992188 20.039062 Z M 33.992188 20.039062 "/>
<path style=" stroke:none;fill-rule:nonzero;fill:rgb(100%,100%,100%);fill-opacity:1;" d="M 34.5625 20.46875 C 34.667969 20.472656 34.75 20.5625 34.746094 20.671875 L 34.710938 21.445312 C 34.703125 21.554688 34.613281 21.636719 34.507812 21.628906 C 34.398438 21.625 34.316406 21.535156 34.320312 21.429688 L 34.355469 20.652344 C 34.363281 20.546875 34.453125 20.464844 34.5625 20.46875 Z M 34.5625 20.46875 "/>
<path style=" stroke:none;fill-rule:nonzero;fill:rgb(100%,100%,100%);fill-opacity:1;" d="M 34.984375 21.050781 C 34.980469 21.15625 34.890625 21.242188 34.78125 21.234375 L 34 21.195312 C 33.890625 21.191406 33.808594 21.101562 33.816406 20.992188 C 33.820312 20.886719 33.910156 20.804688 34.019531 20.808594 L 34.800781 20.847656 C 34.910156 20.851562 34.992188 20.945312 34.984375 21.050781 Z M 34.984375 21.050781 "/>
<path style=" stroke:none;fill-rule:nonzero;fill:rgb(100%,100%,100%);fill-opacity:1;" d="M 33.035156 20.824219 L 33.125 20.929688 C 33.140625 20.949219 33.167969 20.960938 33.191406 20.957031 L 33.328125 20.957031 C 33.359375 20.953125 33.386719 20.964844 33.402344 20.992188 C 33.417969 21.015625 33.417969 21.050781 33.398438 21.074219 L 33.324219 21.191406 C 33.3125 21.210938 33.3125 21.238281 33.324219 21.257812 L 33.375 21.382812 C 33.390625 21.410156 33.386719 21.445312 33.367188 21.464844 C 33.347656 21.488281 33.3125 21.5 33.285156 21.488281 L 33.152344 21.453125 C 33.128906 21.441406 33.105469 21.441406 33.082031 21.453125 L 32.980469 21.542969 C 32.957031 21.5625 32.925781 21.566406 32.898438 21.554688 C 32.871094 21.542969 32.855469 21.519531 32.851562 21.488281 L 32.851562 21.351562 C 32.851562 21.328125 32.839844 21.304688 32.816406 21.289062 L 32.699219 21.21875 C 32.671875 21.210938 32.65625 21.183594 32.65625 21.152344 C 32.65625 21.125 32.671875 21.097656 32.699219 21.085938 L 32.824219 21.035156 C 32.84375 21.023438 32.855469 21.007812 32.859375 20.988281 L 32.890625 20.855469 C 32.886719 20.816406 32.910156 20.78125 32.949219 20.773438 C 32.988281 20.765625 33.023438 20.789062 33.035156 20.824219 Z M 33.035156 20.824219 "/>
<path style=" stroke:none;fill-rule:nonzero;fill:rgb(100%,100%,100%);fill-opacity:1;" d="M 26.9375 20.054688 C 26.9375 20.265625 26.761719 20.441406 26.546875 20.441406 C 26.332031 20.441406 26.15625 20.265625 26.15625 20.054688 C 26.15625 19.839844 26.332031 19.664062 26.546875 19.664062 C 26.761719 19.664062 26.9375 19.839844 26.9375 20.054688 Z M 26.9375 20.054688 "/>
<path style=" stroke:none;fill-rule:nonzero;fill:rgb(100%,100%,100%);fill-opacity:1;" d="M 27.503906 20.480469 C 27.613281 20.488281 27.695312 20.578125 27.691406 20.683594 L 27.652344 21.460938 C 27.648438 21.566406 27.558594 21.648438 27.449219 21.644531 C 27.34375 21.640625 27.257812 21.546875 27.265625 21.441406 L 27.300781 20.667969 C 27.304688 20.558594 27.398438 20.476562 27.503906 20.480469 Z M 27.503906 20.480469 "/>
<path style=" stroke:none;fill-rule:nonzero;fill:rgb(100%,100%,100%);fill-opacity:1;" d="M 28.0625 21.09375 C 28.058594 21.203125 27.964844 21.285156 27.859375 21.277344 L 27.078125 21.242188 C 26.972656 21.238281 26.886719 21.148438 26.894531 21.039062 C 26.898438 20.933594 26.988281 20.851562 27.097656 20.855469 L 27.878906 20.890625 C 27.984375 20.898438 28.066406 20.988281 28.0625 21.09375 Z M 28.0625 21.09375 "/>
<path style=" stroke:none;fill-rule:nonzero;fill:rgb(100%,100%,100%);fill-opacity:1;" d="M 25.980469 20.839844 L 26.070312 20.945312 C 26.085938 20.964844 26.109375 20.972656 26.136719 20.972656 L 26.273438 20.972656 C 26.300781 20.96875 26.332031 20.980469 26.347656 21.007812 C 26.363281 21.03125 26.359375 21.066406 26.34375 21.089844 L 26.269531 21.207031 C 26.257812 21.226562 26.257812 21.253906 26.269531 21.273438 L 26.324219 21.398438 C 26.335938 21.425781 26.328125 21.457031 26.3125 21.480469 C 26.292969 21.5 26.261719 21.511719 26.234375 21.503906 L 26.101562 21.46875 C 26.078125 21.460938 26.054688 21.460938 26.03125 21.46875 L 25.929688 21.558594 C 25.90625 21.578125 25.875 21.582031 25.851562 21.570312 C 25.824219 21.5625 25.804688 21.535156 25.800781 21.507812 L 25.800781 21.371094 C 25.800781 21.347656 25.789062 21.324219 25.765625 21.308594 L 25.644531 21.238281 C 25.621094 21.226562 25.605469 21.199219 25.605469 21.171875 C 25.605469 21.144531 25.621094 21.117188 25.644531 21.105469 L 25.773438 21.054688 C 25.796875 21.042969 25.8125 21.023438 25.820312 21 L 25.832031 20.871094 C 25.824219 20.832031 25.847656 20.789062 25.890625 20.78125 C 25.929688 20.773438 25.972656 20.800781 25.980469 20.839844 Z M 25.980469 20.839844 "/>
<path style=" stroke:none;fill-rule:nonzero;fill:rgb(6.27451%,9.411765%,12.54902%);fill-opacity:1;" d="M 26.15625 16.5625 L 24.59375 16.5625 C 24.164062 16.5625 23.8125 16.214844 23.8125 15.785156 C 23.8125 15.355469 24.164062 15.007812 24.59375 15.007812 L 26.15625 15.007812 C 26.585938 15.007812 26.9375 15.355469 26.9375 15.785156 C 26.9375 16.214844 26.585938 16.5625 26.15625 16.5625 Z M 26.15625 16.5625 "/>
<path style=" stroke:none;fill-rule:nonzero;fill:rgb(6.27451%,9.411765%,12.54902%);fill-opacity:1;" d="M 32.792969 16.5625 L 31.230469 16.5625 C 30.800781 16.5625 30.449219 16.214844 30.449219 15.785156 C 30.449219 15.355469 30.800781 15.007812 31.230469 15.007812 L 32.792969 15.007812 C 33.222656 15.007812 33.574219 15.355469 33.574219 15.785156 C 33.574219 16.214844 33.222656 16.5625 32.792969 16.5625 Z M 32.792969 16.5625 "/>
<path style=" stroke:none;fill-rule:nonzero;fill:rgb(6.27451%,9.411765%,12.54902%);fill-opacity:1;" d="M 29.667969 29.75 L 28.109375 29.75 C 27.675781 29.75 27.328125 29.402344 27.328125 28.976562 C 27.328125 28.546875 27.675781 28.199219 28.109375 28.199219 L 29.667969 28.199219 C 30.101562 28.199219 30.449219 28.546875 30.449219 28.976562 C 30.449219 29.402344 30.101562 29.75 29.667969 29.75 Z M 29.667969 29.75 "/>
<path style=" stroke:none;fill-rule:nonzero;fill:rgb(92.156863%,47.843137%,7.45098%);fill-opacity:1;" d="M 35.917969 18.5 L 35.136719 19.277344 "/>
<path style=" stroke:none;fill-rule:nonzero;fill:rgb(6.27451%,9.411765%,12.54902%);fill-opacity:1;" d="M 35.136719 20.054688 C 34.820312 20.054688 34.535156 19.863281 34.414062 19.574219 C 34.292969 19.28125 34.359375 18.949219 34.585938 18.726562 L 35.367188 17.949219 C 35.675781 17.671875 36.148438 17.683594 36.441406 17.976562 C 36.738281 18.273438 36.746094 18.742188 36.46875 19.046875 L 35.6875 19.824219 C 35.539062 19.96875 35.34375 20.050781 35.136719 20.054688 Z M 35.136719 20.054688 "/>
<path style=" stroke:none;fill-rule:nonzero;fill:rgb(92.156863%,47.843137%,7.45098%);fill-opacity:1;" d="M 22.25 18.890625 L 23.03125 19.664062 "/>
<path style=" stroke:none;fill-rule:nonzero;fill:rgb(6.27451%,9.411765%,12.54902%);fill-opacity:1;" d="M 23.03125 20.441406 C 22.824219 20.441406 22.628906 20.359375 22.480469 20.210938 L 21.699219 19.4375 C 21.488281 19.246094 21.398438 18.949219 21.464844 18.671875 C 21.535156 18.394531 21.753906 18.179688 22.035156 18.109375 C 22.3125 18.039062 22.609375 18.125 22.800781 18.339844 L 23.582031 19.113281 C 23.808594 19.335938 23.875 19.671875 23.753906 19.960938 C 23.632812 20.25 23.347656 20.441406 23.03125 20.441406 Z M 23.03125 20.441406 "/>
</g>
</svg>
